<svg width="56" height="50" viewBox="0 0 56 50" fill="none" xmlns="http://www.w3.org/2000/svg">
<path fill-rule="evenodd" clip-rule="evenodd" d="M0.482531 23.2911C0.338 15.5965 1.84483 6.98232 8.07606 2.3949C13.9765 -1.94897 21.9488 1.54352 29.2735 2.09525C35.8618 2.59152 43.0183 1.15472 48.0458 5.40563C53.4099 9.94104 55.7769 17.2237 55.4271 24.2087C55.0873 30.9929 51.2208 36.9067 46.2349 41.5646C41.3236 46.1528 35.1874 49.1557 28.4476 49.4133C21.2964 49.6866 14.0475 47.8597 8.83867 42.9941C3.40292 37.9165 0.621663 30.6981 0.482531 23.2911Z" fill="#DDF9FF"/>
<g clip-path="url(#clip0_103_123)">
<path d="M23.9501 13.2625C23.8938 13.4125 24.1001 13.9375 24.4188 14.425L24.9813 15.325L24.4751 15.625C23.7063 16.1125 22.5626 17.4625 22.1501 18.4C21.9438 18.85 21.7188 19.7312 21.6813 20.3312L21.5688 21.4375H28.0001H34.4313L34.3188 20.3312C34.2813 19.7312 34.0563 18.85 33.8501 18.4C33.4376 17.4625 32.2938 16.1125 31.5251 15.625L31.0188 15.325L31.5813 14.425C32.1813 13.4687 32.1813 13 31.5813 13C31.3563 13 31.0188 13.3375 30.6438 13.9562C30.0813 14.8375 30.0063 14.8937 29.4626 14.7812C28.7126 14.6125 27.2876 14.6125 26.5376 14.7812C25.9938 14.8937 25.9188 14.8375 25.3563 13.9562C24.7751 13 24.1751 12.7 23.9501 13.2625ZM30.3626 16.2437C31.8251 16.9937 33.2313 18.85 33.2501 20.0687V20.5H28.0001H22.7501V20.0687C22.7688 19.45 23.3688 18.2312 24.0626 17.425C24.6626 16.7687 25.6751 16.1312 26.6876 15.7937C27.5501 15.5125 29.3501 15.7375 30.3626 16.2437Z" fill="#03045E"/>
<path d="M24.7 17.95C24.475 18.5312 24.7188 18.9062 25.3375 18.9625C25.9188 19.0187 25.9375 19 25.9375 18.3625C25.9375 17.7437 25.9 17.6875 25.375 17.6875C25.0563 17.6875 24.7563 17.8 24.7 17.95Z" fill="#00B5D8"/>
<path d="M30.0625 18.3437C30.0625 19 30.0813 19.0187 30.6813 18.9625C31.2063 18.9062 31.2812 18.85 31.2812 18.3437C31.2812 17.8375 31.2063 17.7812 30.6813 17.725C30.0813 17.6687 30.0625 17.6875 30.0625 18.3437Z" fill="#00B5D8"/>
<path d="M18.6438 22.3C18.2688 22.7687 18.25 23.0312 18.25 26.2937C18.2688 28.7312 18.325 29.875 18.4938 30.0812C19.1125 30.9062 20.3125 30.9625 20.9875 30.2125C21.3063 29.8937 21.3438 29.4437 21.4 26.8375C21.475 23.4062 21.4 22.7125 20.8375 22.1875C20.2188 21.625 19.1313 21.6812 18.6438 22.3ZM20.1063 23.0125C20.2563 23.1812 20.3125 24.25 20.275 26.425C20.2188 29.35 20.2 29.5937 19.8625 29.65C19.675 29.6875 19.45 29.6125 19.3563 29.4625C19.1313 29.1062 19.15 23.5562 19.375 23.1062C19.6188 22.675 19.8063 22.6562 20.1063 23.0125Z" fill="#00B5D8"/>
<path d="M21.625 26.4812C21.625 29.0687 21.7 31.375 21.8125 31.6375C22.0188 32.1812 23.0125 32.875 23.6125 32.875C23.9875 32.875 24.025 32.9875 24.1 34.4687C24.175 35.8187 24.25 36.1375 24.625 36.5312C25.2625 37.2062 26.5188 37.1875 27.1562 36.5125C27.5688 36.0625 27.625 35.8375 27.625 34.45C27.625 33.0062 27.6625 32.875 28 32.875C28.3375 32.875 28.375 33.0062 28.375 34.45C28.375 35.8375 28.4313 36.0625 28.8438 36.5125C29.4813 37.1875 30.7375 37.2062 31.375 36.5312C31.75 36.1375 31.825 35.8187 31.9 34.4687C31.975 32.9875 32.0125 32.875 32.3875 32.875C32.9875 32.875 33.9813 32.1812 34.1875 31.6375C34.3 31.375 34.375 29.0687 34.375 26.4812V21.8125H28H21.625V26.4812ZM33.4 26.9687C33.3438 31.75 33.3625 31.6937 31.825 31.9L30.9062 32.0312L30.85 33.8125C30.7938 35.5375 30.6438 36.0625 30.1375 36.0625C29.5188 36.0625 29.3125 35.5 29.3125 33.7V31.9375H28H26.6875V33.7C26.6875 35.5 26.4813 36.0625 25.8625 36.0625C25.3563 36.0625 25.2063 35.5375 25.15 33.8125L25.0938 32.0312L24.175 31.9C22.6375 31.6937 22.6562 31.75 22.6 26.9687L22.5438 22.75H28H33.4563L33.4 26.9687Z" fill="#03045E"/>
<path d="M35.1625 22.1875C34.6 22.7125 34.525 23.4062 34.6 26.8375C34.6562 29.4437 34.6937 29.8937 35.0125 30.2125C35.6875 30.9625 36.8875 30.9062 37.5062 30.0812C37.675 29.875 37.7312 28.7312 37.75 26.2937C37.75 23.0312 37.7312 22.7687 37.3562 22.3C36.8687 21.6812 35.7812 21.625 35.1625 22.1875ZM36.625 23.1062C36.85 23.5562 36.8687 29.1062 36.6437 29.4625C36.55 29.6125 36.325 29.6875 36.1375 29.65C35.8 29.5937 35.7812 29.35 35.725 26.425C35.6875 24.25 35.7437 23.1812 35.8937 23.0125C36.1937 22.6562 36.3812 22.675 36.625 23.1062Z" fill="#00B5D8"/>
</g>
<defs>
<clipPath id="clip0_103_123">
<rect width="24" height="24" fill="white" transform="translate(16 13)"/>
</clipPath>
</defs>
</svg>
