<svg width="106" height="113" viewBox="0 0 106 113" fill="none" xmlns="http://www.w3.org/2000/svg">
<path opacity="0.1" d="M55.9163 0C25.0347 0 0 25.2961 0 56.5C0 87.7039 25.0347 113 55.9163 113H106V0H55.9163ZM81.3688 80.532C68.2342 93.8037 46.9383 93.8037 33.8038 80.532C20.6692 67.2603 20.6692 45.7421 33.8038 32.468C46.9383 19.1963 68.2342 19.1963 81.3688 32.468L105.153 56.5L81.3688 80.532ZM72.5832 56.5C72.5832 64.8689 65.8675 71.6546 57.5851 71.6546C49.3027 71.6546 42.5871 64.8689 42.5871 56.5C42.5871 48.1311 49.3027 41.3454 57.5851 41.3454C65.8675 41.3454 72.5832 48.1311 72.5832 56.5Z" fill="#00B5D8"/>
</svg>
