<svg width="24" height="24" viewBox="0 0 24 24" fill="none" xmlns="http://www.w3.org/2000/svg">
<path d="M3.84394 2.15625C3.18769 2.79375 3.22519 3.61875 3.93769 4.35C4.40644 4.81875 4.50019 5.04375 4.50019 5.83125V6.75L6.09394 7.5375C6.97519 7.96875 7.68769 8.4 7.68769 8.49375C7.68769 8.56875 7.55644 8.85 7.38769 9.09375C7.10644 9.525 6.95644 9.5625 5.81269 9.5625C4.63144 9.5625 4.48144 9.525 3.93769 8.98125C3.43144 8.475 3.26269 8.4 2.66269 8.49375C1.35019 8.71875 0.843938 10.2187 1.78144 11.1562C2.41894 11.8125 3.24394 11.775 3.97519 11.0625C4.46269 10.5562 4.65019 10.5 5.70019 10.5H6.86269V11.4375L6.84394 12.375H6.15019C5.53144 12.375 5.38144 12.4688 4.96894 13.1062C4.59394 13.65 4.31269 13.8562 3.80644 13.9312C2.83144 14.1 2.43769 14.5312 2.43769 15.4875C2.43769 16.125 2.53144 16.3687 2.92519 16.6687C3.56269 17.175 4.31269 17.175 4.96894 16.65C5.45644 16.275 5.47519 16.1812 5.38144 15.225C5.25019 13.9312 5.70019 13.125 6.58144 13.125C6.88144 13.125 7.12519 13.2 7.12519 13.275C7.12519 13.3687 7.55644 14.1562 8.08144 15.0187C8.60644 15.8812 9.07519 16.6875 9.13144 16.8187C9.18769 16.95 8.81269 17.1187 8.11894 17.25C5.81269 17.7188 4.50019 18.5812 4.50019 19.6312C4.50019 21.2437 7.46269 22.3125 12.0002 22.3125C16.5377 22.3125 19.5002 21.2437 19.5002 19.6312C19.5002 18.5812 18.1877 17.7188 15.9002 17.25C15.3002 17.1375 14.8127 17.0062 14.8127 16.95C14.8127 16.9125 15.2814 16.0875 15.8439 15.15C16.4064 14.2125 16.8752 13.3687 16.8752 13.275C16.8752 13.2 17.1189 13.125 17.4189 13.125C18.3002 13.125 18.7502 13.9312 18.6189 15.225C18.5252 16.1812 18.5439 16.275 19.0314 16.65C19.6877 17.175 20.4377 17.175 21.0752 16.6687C21.4689 16.3687 21.5627 16.125 21.5627 15.4875C21.5627 14.5312 21.1689 14.1 20.1939 13.9312C19.6877 13.8562 19.4064 13.65 19.0314 13.1062C18.6189 12.4688 18.4689 12.375 17.8502 12.375H17.1377V11.4375V10.5H18.3002C19.3502 10.5 19.5377 10.5562 20.0252 11.0625C20.7564 11.775 21.5814 11.8125 22.2189 11.1562C22.9877 10.4062 22.8377 9.1875 21.9189 8.71875C21.1314 8.30625 20.6627 8.38125 20.0252 9C19.5189 9.50625 19.3689 9.5625 18.1877 9.5625C17.0439 9.5625 16.8939 9.525 16.6127 9.09375C16.4439 8.85 16.3127 8.56875 16.3127 8.49375C16.3127 8.4 17.0252 7.96875 17.9064 7.5375L19.5002 6.75V5.83125C19.5002 5.04375 19.5939 4.81875 20.0627 4.35C21.1314 3.2625 20.5127 1.6875 19.0314 1.6875C17.5502 1.6875 16.9314 3.2625 18.0002 4.35C18.4314 4.7625 18.5627 5.08125 18.5627 5.60625C18.5627 6.28125 18.5439 6.31875 17.0627 7.03125C15.6752 7.70625 15.5439 7.74375 15.2439 7.44375C14.5502 6.825 13.2377 6.375 12.0752 6.375C10.7439 6.375 9.90019 6.61875 9.01894 7.275L8.40019 7.74375L6.91894 7.0125C5.45644 6.31875 5.43769 6.28125 5.43769 5.60625C5.43769 5.08125 5.56894 4.7625 6.00019 4.35C7.06894 3.2625 6.45019 1.6875 4.96894 1.6875C4.50019 1.6875 4.14394 1.8375 3.84394 2.15625ZM5.40019 2.6625C5.71894 2.98125 5.68144 3.46875 5.32519 3.76875C4.74394 4.25625 4.01269 3.3 4.50019 2.71875C4.78144 2.38125 5.10019 2.3625 5.40019 2.6625ZM19.4627 2.6625C19.7814 2.98125 19.7439 3.46875 19.3877 3.76875C18.8064 4.25625 18.0752 3.3 18.5627 2.71875C18.8439 2.38125 19.1627 2.3625 19.4627 2.6625ZM13.8377 7.66875C14.8689 8.19375 15.8252 9.3375 16.1252 10.3875C16.5377 11.85 16.2564 12.6562 14.0627 16.3687C12.9752 18.1875 12.0564 19.6687 12.0002 19.6687C11.9439 19.6687 11.0252 18.1875 9.93769 16.3687C8.71894 14.2875 7.91269 12.7312 7.80019 12.1687C7.38769 10.125 8.77519 8.025 11.0627 7.29375C11.7377 7.06875 13.0127 7.2375 13.8377 7.66875ZM3.52519 9.975C3.61894 10.7062 2.96269 11.025 2.43769 10.5C1.91269 9.975 2.23144 9.31875 2.96269 9.4125C3.35644 9.45 3.48769 9.58125 3.52519 9.975ZM21.7502 9.75C21.9002 10.0312 21.8627 10.2 21.5627 10.5C21.2627 10.8 21.0939 10.8375 20.8127 10.6875C20.4564 10.5 20.3064 9.76875 20.5689 9.50625C20.8314 9.24375 21.5627 9.39375 21.7502 9.75ZM4.57519 15.225C4.72519 15.4875 4.68769 15.6375 4.38769 15.9375C3.95644 16.3875 3.45019 16.275 3.28144 15.7312C3.01894 14.925 4.12519 14.5125 4.57519 15.225ZM20.6252 15.0937C20.8877 15.4125 20.7189 16.05 20.3064 16.2C19.9877 16.3312 19.3127 15.8437 19.3127 15.4687C19.3127 14.8687 20.2127 14.6062 20.6252 15.0937ZM10.6502 19.2562C11.3627 20.4562 11.5314 20.625 12.0002 20.625C12.4689 20.625 12.6564 20.4562 13.3314 19.3125C13.7627 18.5812 14.1752 17.9437 14.2689 17.8875C14.4939 17.7562 16.8752 18.3375 17.7564 18.7687C18.7689 19.2562 18.9189 19.6687 18.2627 20.175C17.5314 20.775 16.1064 21.1687 13.9127 21.4312C10.8002 21.7687 7.01269 21.2062 5.73769 20.175C5.13769 19.7062 5.21269 19.3312 6.00019 18.8812C6.60019 18.525 9.11269 17.8125 9.54394 17.8687C9.69394 17.8875 10.1814 18.525 10.6502 19.2562Z" fill="#03045E"/>
<path d="M10.9875 8.81255C9.35629 9.3188 8.53129 11.4188 9.30004 13.0688C10.3125 15.1875 13.6875 15.1688 14.7188 13.0125C15.3375 11.7 14.8875 10.05 13.6688 9.15005C13.125 8.7563 11.7375 8.5688 10.9875 8.81255ZM13.2938 10.0313C14.0813 10.7063 14.3438 11.5875 13.9875 12.45C13.6875 13.1813 12.7313 13.875 12 13.875C11.2688 13.875 10.3125 13.1813 10.0125 12.45C9.46879 11.1375 10.5375 9.56255 12 9.56255C12.5063 9.56255 12.9 9.71255 13.2938 10.0313Z" fill="#00B5D8"/>
</svg>
