<svg width="48" height="41" viewBox="0 0 48 41" fill="none" xmlns="http://www.w3.org/2000/svg">
<path fill-rule="evenodd" clip-rule="evenodd" d="M20.518 0.294885C26.6801 0.40879 33.0089 0.163812 37.6481 4.1811C43.5298 9.27429 49.3406 16.286 47.7265 23.8557C46.0977 31.4946 37.7205 35.1144 30.4222 38.0699C23.8237 40.7421 16.3241 42.5622 10.12 39.0853C4.24754 35.7942 3.07144 28.5017 1.68238 21.9636C0.33702 15.6312 -1.69674 8.43721 2.5666 3.53262C6.74094 -1.26957 14.12 0.17662 20.518 0.294885Z" fill="#DDF9FF"/>
<path d="M13.8439 9.15625C13.1877 9.79375 13.2252 10.6187 13.9377 11.35C14.4064 11.8187 14.5002 12.0437 14.5002 12.8312V13.75L16.0939 14.5375C16.9752 14.9687 17.6877 15.4 17.6877 15.4937C17.6877 15.5687 17.5564 15.85 17.3877 16.0937C17.1064 16.525 16.9564 16.5625 15.8127 16.5625C14.6314 16.5625 14.4814 16.525 13.9377 15.9812C13.4314 15.475 13.2627 15.4 12.6627 15.4937C11.3502 15.7187 10.8439 17.2187 11.7814 18.1562C12.4189 18.8125 13.2439 18.775 13.9752 18.0625C14.4627 17.5562 14.6502 17.5 15.7002 17.5H16.8627V18.4375L16.8439 19.375H16.1502C15.5314 19.375 15.3814 19.4688 14.9689 20.1062C14.5939 20.65 14.3127 20.8562 13.8064 20.9312C12.8314 21.1 12.4377 21.5312 12.4377 22.4875C12.4377 23.125 12.5314 23.3687 12.9252 23.6687C13.5627 24.175 14.3127 24.175 14.9689 23.65C15.4564 23.275 15.4752 23.1812 15.3814 22.225C15.2502 20.9312 15.7002 20.125 16.5814 20.125C16.8814 20.125 17.1252 20.2 17.1252 20.275C17.1252 20.3687 17.5564 21.1562 18.0814 22.0187C18.6064 22.8812 19.0752 23.6875 19.1314 23.8187C19.1877 23.95 18.8127 24.1187 18.1189 24.25C15.8127 24.7188 14.5002 25.5812 14.5002 26.6312C14.5002 28.2437 17.4627 29.3125 22.0002 29.3125C26.5377 29.3125 29.5002 28.2437 29.5002 26.6312C29.5002 25.5812 28.1877 24.7188 25.9002 24.25C25.3002 24.1375 24.8127 24.0062 24.8127 23.95C24.8127 23.9125 25.2814 23.0875 25.8439 22.15C26.4064 21.2125 26.8752 20.3687 26.8752 20.275C26.8752 20.2 27.1189 20.125 27.4189 20.125C28.3002 20.125 28.7502 20.9312 28.6189 22.225C28.5252 23.1812 28.5439 23.275 29.0314 23.65C29.6877 24.175 30.4377 24.175 31.0752 23.6687C31.4689 23.3687 31.5627 23.125 31.5627 22.4875C31.5627 21.5312 31.1689 21.1 30.1939 20.9312C29.6877 20.8562 29.4064 20.65 29.0314 20.1062C28.6189 19.4688 28.4689 19.375 27.8502 19.375H27.1377V18.4375V17.5H28.3002C29.3502 17.5 29.5377 17.5562 30.0252 18.0625C30.7564 18.775 31.5814 18.8125 32.2189 18.1562C32.9877 17.4062 32.8377 16.1875 31.9189 15.7187C31.1314 15.3062 30.6627 15.3812 30.0252 16C29.5189 16.5062 29.3689 16.5625 28.1877 16.5625C27.0439 16.5625 26.8939 16.525 26.6127 16.0937C26.4439 15.85 26.3127 15.5687 26.3127 15.4937C26.3127 15.4 27.0252 14.9687 27.9064 14.5375L29.5002 13.75V12.8312C29.5002 12.0437 29.5939 11.8187 30.0627 11.35C31.1314 10.2625 30.5127 8.6875 29.0314 8.6875C27.5502 8.6875 26.9314 10.2625 28.0002 11.35C28.4314 11.7625 28.5627 12.0812 28.5627 12.6062C28.5627 13.2812 28.5439 13.3187 27.0627 14.0312C25.6752 14.7062 25.5439 14.7437 25.2439 14.4437C24.5502 13.825 23.2377 13.375 22.0752 13.375C20.7439 13.375 19.9002 13.6187 19.0189 14.275L18.4002 14.7437L16.9189 14.0125C15.4564 13.3187 15.4377 13.2812 15.4377 12.6062C15.4377 12.0812 15.5689 11.7625 16.0002 11.35C17.0689 10.2625 16.4502 8.6875 14.9689 8.6875C14.5002 8.6875 14.1439 8.8375 13.8439 9.15625ZM15.4002 9.6625C15.7189 9.98125 15.6814 10.4688 15.3252 10.7687C14.7439 11.2562 14.0127 10.3 14.5002 9.71875C14.7814 9.38125 15.1002 9.3625 15.4002 9.6625ZM29.4627 9.6625C29.7814 9.98125 29.7439 10.4688 29.3877 10.7687C28.8064 11.2562 28.0752 10.3 28.5627 9.71875C28.8439 9.38125 29.1627 9.3625 29.4627 9.6625ZM23.8377 14.6687C24.8689 15.1937 25.8252 16.3375 26.1252 17.3875C26.5377 18.85 26.2564 19.6562 24.0627 23.3687C22.9752 25.1875 22.0564 26.6687 22.0002 26.6687C21.9439 26.6687 21.0252 25.1875 19.9377 23.3687C18.7189 21.2875 17.9127 19.7312 17.8002 19.1687C17.3877 17.125 18.7752 15.025 21.0627 14.2937C21.7377 14.0687 23.0127 14.2375 23.8377 14.6687ZM13.5252 16.975C13.6189 17.7062 12.9627 18.025 12.4377 17.5C11.9127 16.975 12.2314 16.3187 12.9627 16.4125C13.3564 16.45 13.4877 16.5812 13.5252 16.975ZM31.7502 16.75C31.9002 17.0312 31.8627 17.2 31.5627 17.5C31.2627 17.8 31.0939 17.8375 30.8127 17.6875C30.4564 17.5 30.3064 16.7687 30.5689 16.5062C30.8314 16.2437 31.5627 16.3937 31.7502 16.75ZM14.5752 22.225C14.7252 22.4875 14.6877 22.6375 14.3877 22.9375C13.9564 23.3875 13.4502 23.275 13.2814 22.7312C13.0189 21.925 14.1252 21.5125 14.5752 22.225ZM30.6252 22.0937C30.8877 22.4125 30.7189 23.05 30.3064 23.2C29.9877 23.3312 29.3127 22.8437 29.3127 22.4687C29.3127 21.8687 30.2127 21.6062 30.6252 22.0937ZM20.6502 26.2562C21.3627 27.4562 21.5314 27.625 22.0002 27.625C22.4689 27.625 22.6564 27.4562 23.3314 26.3125C23.7627 25.5812 24.1752 24.9437 24.2689 24.8875C24.4939 24.7562 26.8752 25.3375 27.7564 25.7687C28.7689 26.2562 28.9189 26.6687 28.2627 27.175C27.5314 27.775 26.1064 28.1687 23.9127 28.4312C20.8002 28.7687 17.0127 28.2062 15.7377 27.175C15.1377 26.7062 15.2127 26.3312 16.0002 25.8812C16.6002 25.525 19.1127 24.8125 19.5439 24.8687C19.6939 24.8875 20.1814 25.525 20.6502 26.2562Z" fill="#03045E"/>
<path d="M20.9875 15.8125C19.3563 16.3188 18.5313 18.4188 19.3 20.0688C20.3125 22.1875 23.6875 22.1688 24.7188 20.0125C25.3375 18.7 24.8875 17.05 23.6688 16.15C23.125 15.7563 21.7375 15.5688 20.9875 15.8125ZM23.2938 17.0313C24.0813 17.7063 24.3438 18.5875 23.9875 19.45C23.6875 20.1813 22.7313 20.875 22 20.875C21.2688 20.875 20.3125 20.1813 20.0125 19.45C19.4688 18.1375 20.5375 16.5625 22 16.5625C22.5063 16.5625 22.9 16.7125 23.2938 17.0313Z" fill="#00B5D8"/>
</svg>
