<svg width="24" height="24" viewBox="0 0 24 24" fill="none" xmlns="http://www.w3.org/2000/svg">
<g clipPath="url(#clip0_103_125)">
<path d="M7.9501 0.2625C7.89385 0.412499 8.1001 0.9375 8.41885 1.425L8.98135 2.325L8.4751 2.625C7.70635 3.1125 6.5626 4.4625 6.1501 5.4C5.94385 5.85 5.71885 6.73125 5.68135 7.33125L5.56885 8.4375H12.0001H18.4313L18.3188 7.33125C18.2813 6.73125 18.0563 5.85 17.8501 5.4C17.4376 4.4625 16.2938 3.1125 15.5251 2.625L15.0188 2.325L15.5813 1.425C16.1813 0.46875 16.1813 0 15.5813 0C15.3563 0 15.0188 0.3375 14.6438 0.95625C14.0813 1.8375 14.0063 1.89375 13.4626 1.78125C12.7126 1.6125 11.2876 1.6125 10.5376 1.78125C9.99385 1.89375 9.91885 1.8375 9.35635 0.95625C8.7751 0 8.1751 -0.3 7.9501 0.2625ZM14.3626 3.24375C15.8251 3.99375 17.2313 5.85 17.2501 7.06875V7.5H12.0001H6.7501V7.06875C6.76885 6.45 7.36885 5.23125 8.0626 4.425C8.6626 3.76875 9.6751 3.13125 10.6876 2.79375C11.5501 2.5125 13.3501 2.7375 14.3626 3.24375Z" fill="#03045E"/>
<path d="M8.70002 4.94999C8.47502 5.53124 8.71877 5.90624 9.33752 5.96249C9.91877 6.01874 9.93752 5.99999 9.93752 5.36249C9.93752 4.74374 9.90002 4.68749 9.37502 4.68749C9.05627 4.68749 8.75627 4.79999 8.70002 4.94999Z" fill="#00B5D8"/>
<path d="M14.0625 5.34373C14.0625 5.99998 14.0813 6.01873 14.6813 5.96248C15.2063 5.90623 15.2812 5.84998 15.2812 5.34373C15.2812 4.83748 15.2063 4.78123 14.6813 4.72498C14.0813 4.66873 14.0625 4.68748 14.0625 5.34373Z" fill="#00B5D8"/>
<path d="M2.64375 9.29997C2.26875 9.76872 2.25 10.0312 2.25 13.2937C2.26875 15.7312 2.325 16.875 2.49375 17.0812C3.1125 17.9062 4.3125 17.9625 4.9875 17.2125C5.30625 16.8937 5.34375 16.4437 5.4 13.8375C5.475 10.4062 5.4 9.71247 4.8375 9.18747C4.21875 8.62497 3.13125 8.68122 2.64375 9.29997ZM4.10625 10.0125C4.25625 10.1812 4.3125 11.25 4.275 13.425C4.21875 16.35 4.2 16.5937 3.8625 16.65C3.675 16.6875 3.45 16.6125 3.35625 16.4625C3.13125 16.1062 3.15 10.5562 3.375 10.1062C3.61875 9.67497 3.80625 9.65622 4.10625 10.0125Z" fill="#00B5D8"/>
<path d="M5.625 13.4812C5.625 16.0687 5.7 18.375 5.8125 18.6375C6.01875 19.1812 7.0125 19.875 7.6125 19.875C7.9875 19.875 8.025 19.9875 8.1 21.4687C8.175 22.8187 8.25 23.1375 8.625 23.5312C9.2625 24.2062 10.5188 24.1875 11.1562 23.5125C11.5688 23.0625 11.625 22.8375 11.625 21.45C11.625 20.0062 11.6625 19.875 12 19.875C12.3375 19.875 12.375 20.0062 12.375 21.45C12.375 22.8375 12.4313 23.0625 12.8438 23.5125C13.4813 24.1875 14.7375 24.2062 15.375 23.5312C15.75 23.1375 15.825 22.8187 15.9 21.4687C15.975 19.9875 16.0125 19.875 16.3875 19.875C16.9875 19.875 17.9813 19.1812 18.1875 18.6375C18.3 18.375 18.375 16.0687 18.375 13.4812V8.81248H12H5.625V13.4812ZM17.4 13.9687C17.3438 18.75 17.3625 18.6937 15.825 18.9L14.9062 19.0312L14.85 20.8125C14.7938 22.5375 14.6438 23.0625 14.1375 23.0625C13.5188 23.0625 13.3125 22.5 13.3125 20.7V18.9375H12H10.6875V20.7C10.6875 22.5 10.4813 23.0625 9.8625 23.0625C9.35625 23.0625 9.20625 22.5375 9.15 20.8125L9.09375 19.0312L8.175 18.9C6.6375 18.6937 6.65625 18.75 6.6 13.9687L6.54375 9.74998H12H17.4563L17.4 13.9687Z" fill="#03045E"/>
<path d="M19.1625 9.18747C18.6 9.71247 18.525 10.4062 18.6 13.8375C18.6562 16.4437 18.6937 16.8937 19.0125 17.2125C19.6875 17.9625 20.8875 17.9062 21.5062 17.0812C21.675 16.875 21.7312 15.7312 21.75 13.2937C21.75 10.0312 21.7312 9.76872 21.3562 9.29997C20.8687 8.68122 19.7812 8.62497 19.1625 9.18747ZM20.625 10.1062C20.85 10.5562 20.8687 16.1062 20.6437 16.4625C20.55 16.6125 20.325 16.6875 20.1375 16.65C19.8 16.5937 19.7812 16.35 19.725 13.425C19.6875 11.25 19.7437 10.1812 19.8937 10.0125C20.1937 9.65622 20.3812 9.67497 20.625 10.1062Z" fill="#00B5D8"/>
</g>
<defs>
<clipPath id="clip0_103_125">
<rect width="24" height="24" fill="white"/>
</clipPath>
</defs>
</svg>
