<svg width="36" height="37" viewBox="0 0 36 37" fill="none" xmlns="http://www.w3.org/2000/svg">
<path d="M2.98125 2.77715L2.25 3.53652V18.3584V33.1803L2.98125 33.9396L3.74062 34.6709H12.9656H22.1906L22.9781 33.9959C23.6531 33.4053 23.7375 33.124 23.7656 31.6896C23.7656 30.1146 23.7375 30.0303 23.0625 30.0303C22.4438 30.0303 22.3594 30.1709 22.275 31.2115C22.1344 33.2646 22.1062 33.2646 12.9375 33.2646C6.44062 33.2646 4.78125 33.1803 4.33125 32.8709C3.825 32.4771 3.79688 31.999 3.79688 18.3584C3.79688 4.71777 3.825 4.23965 4.33125 3.8459C4.78125 3.53652 6.44062 3.45215 13.0781 3.45215C22.3031 3.45215 22.1062 3.3959 22.275 5.56152C22.3594 6.5459 22.4438 6.68652 23.0625 6.68652C23.7375 6.68652 23.7656 6.60215 23.7656 5.02715C23.7375 3.59277 23.6531 3.31152 22.9781 2.7209L22.1906 2.0459H12.9656H3.74062L2.98125 2.77715Z" fill="#00B5D8"/>
<path d="M5.34371 5.13963C4.80933 5.674 4.78121 6.06775 4.78121 18.3584C4.78121 33.6303 4.30308 32.1959 9.22496 32.0834L12.5156 31.999V30.874C12.5156 30.0021 12.6281 29.749 13.05 29.6646C13.5 29.5521 13.5562 29.6646 13.3875 30.4521C13.1062 31.9709 13.4718 32.1396 17.0437 32.1396C20.5031 32.1396 21.0937 31.9146 21.0937 30.5646C21.0937 30.0303 20.9531 29.8896 20.3906 29.8896C19.9968 29.8896 19.6875 30.0021 19.6875 30.1709C19.6875 30.3396 18.7593 30.4521 17.4375 30.4521C15.2437 30.4521 15.1875 30.424 15.1875 29.749C15.1875 28.7928 14.1468 27.9209 13.0218 27.9209C11.925 27.9209 10.6875 28.9615 10.6875 29.8896C10.6875 30.3959 10.5187 30.4521 8.57808 30.4521H6.46871V18.3584V6.26463H7.62183C8.46558 6.26463 9.02808 6.4615 9.64683 6.99588C10.4625 7.67088 10.6312 7.72713 13.2468 7.61463C15.6375 7.53025 16.0875 7.44588 16.65 6.88338C17.1281 6.4615 17.6625 6.26463 18.5062 6.26463C19.1531 6.26463 19.6875 6.37712 19.6875 6.54588C19.6875 6.6865 19.9968 6.82713 20.3906 6.82713C20.9531 6.82713 21.0937 6.6865 21.0937 6.15213C21.0937 4.97087 20.4187 4.57713 18.3093 4.57713C16.65 4.57713 16.3406 4.6615 15.75 5.28025C15.1593 5.899 14.85 5.98338 13.05 5.98338C11.2218 5.98338 10.9125 5.899 10.2937 5.28025C9.67496 4.6615 9.33746 4.57713 7.73433 4.57713C6.27183 4.57713 5.79371 4.68962 5.34371 5.13963Z" fill="#00B5D8"/>
<path d="M19.0969 7.75527C17.1844 8.28965 15.1875 9.55527 15.1875 10.2303C15.1875 11.1584 15.975 11.1584 17.8031 10.174C19.4062 9.30215 19.7437 9.21777 22.0781 9.21777C24.4406 9.21777 24.75 9.27402 26.3812 10.174C29.8125 12.0303 31.8375 15.7428 31.3594 19.2584C31.1906 20.4678 31.1062 20.5803 30.5437 20.4396C29.3906 20.1584 29.1375 20.9459 29.8406 22.549C30.5156 24.1803 30.9094 24.2928 32.625 23.4209C33.8625 22.774 34.1719 21.7896 33.1875 21.5365C32.6531 21.3959 32.625 21.199 33.0469 19.0334C33.2719 18.0209 32.625 14.8709 31.9219 13.4084C31.0219 11.5803 28.575 9.2459 26.55 8.31777C24.6375 7.4459 21.1219 7.19277 19.0969 7.75527Z" fill="#00B5D8"/>
<path d="M20.8964 10.2021C20.5589 10.3428 20.1933 10.8209 20.0808 11.2428C19.8277 12.2834 19.4339 12.5084 18.7308 12.0021C17.9151 11.4396 17.3245 11.524 16.3401 12.3396C15.7776 12.7896 15.4683 13.3521 15.4401 13.8021C15.4401 14.3928 15.3276 14.224 15.0183 13.2115C14.7933 12.4803 14.4276 11.8053 14.2308 11.7209C14.0058 11.6365 13.2183 11.749 12.487 11.974C11.4183 12.2834 11.0808 12.5084 11.0245 12.9865C10.9401 13.4084 11.0808 13.6615 11.4745 13.774C11.9808 13.8865 11.9808 13.9709 11.6151 15.0678C11.3339 15.8834 11.2214 17.0646 11.3058 18.9209C11.3901 21.3115 11.5026 21.7896 12.3745 23.3646C13.5558 25.5865 15.8058 27.6678 17.9433 28.5115C20.3339 29.4959 24.2995 29.4678 26.437 28.4553C28.3776 27.5553 29.812 26.3459 29.812 25.6428C29.812 24.7146 29.0808 24.7428 27.6464 25.7553C23.2589 28.9334 17.4933 27.9771 14.4839 23.5896C12.7683 21.0865 12.4026 18.6678 13.2745 15.4053C13.4995 14.5053 13.612 14.3928 13.8089 14.7865C14.1464 15.349 15.0745 15.4334 15.2714 14.899C15.3839 14.6459 15.4964 14.674 15.7214 14.9834C16.2276 15.6865 16.0589 16.0521 15.187 16.249C14.2026 16.474 13.7808 17.1209 13.7808 18.3584C13.7808 19.624 14.2026 20.2428 15.2151 20.4678C15.9464 20.6365 16.0589 20.749 15.8901 21.2553C15.3276 23.0271 15.3839 23.5896 16.312 24.349C17.3245 25.1928 17.887 25.2771 18.7308 24.7146C19.4058 24.2365 19.7433 24.4053 20.1089 25.5303C20.6995 27.2459 23.9058 27.1334 24.1589 25.3896C24.2714 24.4615 24.7214 24.2084 25.4245 24.7146C26.2401 25.2771 26.8308 25.1928 27.8151 24.3771C28.462 23.8428 28.687 23.4209 28.687 22.7178C28.687 22.1834 28.5745 21.6771 28.4058 21.5928C27.8714 21.2553 28.1245 20.8896 29.1933 20.3834C30.2058 19.9053 30.2339 19.8771 30.2339 18.3584C30.2339 16.8396 30.2058 16.8115 29.1933 16.3053C28.1245 15.8271 27.8714 15.4615 28.4058 15.124C28.5745 15.0396 28.687 14.5334 28.687 13.999C28.687 13.2959 28.462 12.874 27.8151 12.3396C26.8589 11.524 26.2401 11.4396 25.4527 12.0021C24.7776 12.4803 24.187 12.2834 24.187 11.5803C24.187 10.2865 22.4714 9.58338 20.8964 10.2021ZM22.7245 12.4803C22.8933 13.1553 23.2027 13.4646 24.0183 13.8021C25.0026 14.1959 25.1714 14.1959 25.9026 13.7459C26.662 13.2959 26.7464 13.2959 26.887 13.7178C26.9995 13.9709 26.9433 14.3084 26.7464 14.5053C25.9308 15.3209 26.8308 17.7959 27.9839 17.7959C28.4902 17.7959 28.687 17.9365 28.687 18.3584C28.687 18.7803 28.4902 18.9209 27.9839 18.9209C26.8308 18.9209 25.9308 21.3959 26.7464 22.2115C26.9433 22.4084 26.9995 22.7459 26.887 22.999C26.7464 23.4209 26.662 23.4209 25.9026 22.9709C25.1714 22.5209 25.0026 22.5209 24.0183 22.9146C23.2027 23.2521 22.8933 23.5615 22.7245 24.2365C22.4151 25.3615 21.7964 25.3615 21.487 24.2365C21.1495 23.0834 19.4339 22.2959 18.4214 22.8584C17.4651 23.3646 17.0433 22.999 17.6058 22.0428C18.0276 21.3396 18.0276 21.199 17.5214 20.1584C17.1276 19.3428 16.8183 19.0334 16.2276 18.9771C15.6933 18.9209 15.4683 18.724 15.4683 18.3584C15.4683 17.9928 15.6933 17.7959 16.2276 17.7396C16.8183 17.6834 17.1276 17.374 17.5214 16.5584C18.0276 15.5178 18.0276 15.3771 17.6058 14.674C17.0433 13.7178 17.4651 13.3521 18.4214 13.8584C19.4339 14.4209 21.1495 13.6334 21.487 12.4803C21.7964 11.3553 22.4151 11.3553 22.7245 12.4803Z" fill="#00B5D8"/>
<path d="M20.6716 14.5615C16.9872 15.8553 17.1559 21.2272 20.9247 22.2678C23.6809 23.0272 26.1559 21.1709 26.1559 18.3584C26.1559 15.4334 23.4841 13.5772 20.6716 14.5615ZM23.6528 16.6428C24.6653 17.6834 24.7216 18.8647 23.7934 19.9334C21.9091 22.1553 18.4778 19.399 20.1372 17.0084C21.0653 15.6584 22.4997 15.5178 23.6528 16.6428Z" fill="#00B5D8"/>
</svg>
