<svg width="36" height="36" viewBox="0 0 36 36" fill="none" xmlns="http://www.w3.org/2000/svg">
<g clip-path="url(#clip0_108_444)">
<path d="M0.562776 0.562481C0.0284013 1.09686 0.000276253 1.49061 0.000276253 15.1875C0.000276253 32.0344 -0.449724 30.4312 4.16278 30.3187C6.75028 30.2344 7.17215 30.1781 7.25653 29.7281C7.3409 29.3062 7.08778 29.25 4.8659 29.25C0.928401 29.25 1.12528 29.6437 1.12528 22.05V15.75H2.78465C4.44403 15.75 4.44403 15.75 4.61278 16.6781C4.83778 17.8875 6.1034 19.0969 7.36903 19.2937C9.1409 19.6031 10.969 18.1687 10.969 16.5375C10.969 15.7781 10.9972 15.75 12.6565 15.75H14.3159L14.4003 18.0562L14.4847 20.3906L15.7222 20.5594C17.0159 20.7281 18.0003 21.5719 18.0003 22.5C18.0003 23.4281 17.0159 24.2719 15.7222 24.4406L14.4847 24.6094L14.4003 26.9156L14.3159 29.25H11.3909C8.63465 29.25 8.43778 29.2781 8.43778 29.8125C8.43778 30.3469 8.63465 30.375 12.094 30.375H15.7503V28.125V25.9031L16.819 25.5937C18.0847 25.2562 18.7597 24.6094 19.1253 23.4C19.6315 21.5719 18.4222 19.575 16.5378 19.2094C15.7784 19.0687 15.7503 18.9844 15.7503 17.4094V15.7781L18.0847 15.6937L20.3909 15.6094L20.4753 14.625C20.7565 11.7281 23.9909 11.6719 24.3847 14.5687L24.5534 15.75H27.4784H30.4034L30.319 12.15C30.2347 8.80311 30.2065 8.57811 29.6722 8.57811C29.1378 8.57811 29.1097 8.80311 29.0253 11.5875L28.9409 14.625H27.2815H25.594V13.7531C25.594 12.6281 24.3284 11.3625 22.9784 11.1094C21.1784 10.7719 19.1253 12.3187 19.1253 14.0344C19.1253 14.5687 18.9565 14.625 17.4378 14.625H15.7784L15.694 12.2906L15.6097 9.98436L14.6253 9.89998C12.544 9.70311 11.644 7.64998 13.1065 6.49686C13.5284 6.15936 14.2597 5.90623 14.794 5.90623H15.7503V3.51561V1.12498H21.6284C24.8628 1.12498 27.844 1.23748 28.2378 1.40623C28.9128 1.65936 28.9409 1.77186 29.0253 4.41561C29.1097 6.94686 29.1659 7.17186 29.6722 7.17186C30.2065 7.17186 30.2347 6.94686 30.319 4.27498C30.4034 1.54686 30.3753 1.37811 29.7003 0.703106L28.9972 -1.90735e-05H15.0472C1.4909 -1.90735e-05 1.09715 0.0281048 0.562776 0.562481ZM14.344 2.81248C14.344 4.44373 14.3159 4.52811 13.5847 4.66873C10.5753 5.25936 10.0128 9.47811 12.769 10.8C13.3034 11.0531 13.8659 11.25 14.0347 11.25C14.2315 11.25 14.344 11.8969 14.344 12.9375V14.625H12.1222H9.9284L9.75965 15.8062C9.3659 18.7031 6.13153 18.6469 5.85028 15.75L5.7659 14.7656L3.45965 14.6812L1.12528 14.5969V8.29686C1.12528 2.10936 1.12528 1.99685 1.74403 1.57498C2.2784 1.20935 3.4034 1.12498 8.3534 1.12498H14.344V2.81248Z" fill="#00B5D8"/>
<path d="M26.5217 17.1562C25.4811 17.775 25.0311 18.5062 25.0311 19.5187C25.0311 20.25 25.0311 20.25 22.6404 20.25H20.2217L20.3061 23.1187L20.3904 26.0156L21.3748 26.1C23.4561 26.2969 24.3561 28.35 22.8936 29.5031C22.4717 29.8406 21.7404 30.0938 21.2061 30.0938H20.2498V33.0469V36H27.5623C34.5092 36 34.9029 35.9719 35.4373 35.4375C35.9717 34.9031 35.9998 34.5094 35.9998 27.5625V20.25H33.7498C31.8654 20.25 31.4998 20.1656 31.4998 19.8C31.4998 18.8438 30.5717 17.4656 29.6717 17.0437C28.4342 16.4531 27.6186 16.4812 26.5217 17.1562ZM29.4748 18.6187C29.7842 18.9844 30.0936 19.7156 30.1498 20.25L30.2342 21.2344L32.5686 21.3187L34.8748 21.4031V27.7031C34.8748 33.8906 34.8748 34.0031 34.2561 34.425C33.7217 34.7906 32.5967 34.875 27.6467 34.875H21.6561V33.1875C21.6561 31.5562 21.6842 31.4719 22.4436 31.3312C22.8654 31.2469 23.3998 31.0219 23.6248 30.8531C25.9311 29.1094 25.1998 25.5094 22.4436 24.8906C21.6842 24.7219 21.6561 24.6375 21.6561 23.0344V21.375H23.9061H26.1561V20.3906C26.1561 19.1812 27.1967 18 28.2092 18C28.5748 18 29.1373 18.2812 29.4748 18.6187Z" fill="#00B5D8"/>
</g>
<defs>
<clipPath id="clip0_108_444">
<rect width="36" height="36" fill="white"/>
</clipPath>
</defs>
</svg>
