<svg width="36" height="36" viewBox="0 0 36 36" fill="none" xmlns="http://www.w3.org/2000/svg">
<path d="M15.4684 0.871895C14.7653 1.01252 13.4997 1.37814 12.5997 1.71564C11.3903 2.16565 10.884 2.22189 10.4622 1.99689C9.56217 1.51877 8.83092 1.63127 7.98717 2.36252C7.39655 2.86877 7.19967 3.26252 7.2278 4.02189C7.25592 4.78127 7.05905 5.20314 6.4403 5.79377C5.5403 6.66565 5.39967 7.25627 6.07467 7.5094C6.3278 7.59377 6.83405 7.34065 7.3403 6.86252C7.98717 6.24377 8.38092 6.07502 9.16842 6.1594C9.75905 6.18752 10.4622 6.04689 10.8559 5.76564C11.7278 5.20314 12.3184 5.31565 14.7934 6.52502C16.3403 7.2844 16.5934 7.5094 16.5934 8.12815C16.5653 9.05627 13.2747 12.6563 12.4309 12.6563C12.1215 12.6563 11.4747 12.9656 11.0247 13.3594C10.3778 13.8938 9.87155 14.0625 8.83092 14.0625C8.07155 14.0625 6.72155 14.175 5.79342 14.3438C4.47155 14.5406 4.0778 14.5406 3.7403 14.2031C3.26217 13.6969 3.4028 13.1906 4.55592 10.8563C5.37155 9.22502 5.4278 8.43752 4.66842 8.43752C4.16217 8.43752 3.48717 9.50627 2.69967 11.5313C2.24967 12.7406 1.8278 13.3594 1.12467 13.8375C0.309049 14.4 0.140299 14.6813 0.0559243 15.6938C-0.0284507 16.65 0.112174 16.9875 0.646549 17.4938C1.1528 17.9719 1.3778 18.5625 1.51842 19.8281C1.96842 23.4 3.57155 27.0281 5.84967 29.5594C6.74967 30.5719 7.17155 31.3031 7.19967 31.8938C7.2278 32.4281 7.53717 32.9906 7.98717 33.3844C8.74655 34.0313 10.2372 34.2563 10.5465 33.7781C10.6309 33.6375 11.4184 33.8063 12.3465 34.1719C16.0309 35.6625 20.4184 35.775 24.3559 34.4531C25.8465 33.9469 26.7747 33.7781 27.4497 33.9188C27.984 34.0031 28.7153 34.0031 29.109 33.9188C29.8684 33.7219 30.7965 32.2594 30.5434 31.5844C30.4309 31.3313 30.909 30.5719 31.809 29.5875C33.4122 27.7594 34.9309 24.8344 35.5778 22.3594C36.4778 18.8438 35.9997 13.8938 34.4809 10.5188C34.059 9.59065 33.8903 8.94377 34.059 8.69065C34.4809 8.04377 34.3403 7.14377 33.7215 6.35627C33.2715 5.79377 32.9059 5.62502 32.0903 5.62502C30.7965 5.62502 30.0934 4.95002 30.0934 3.71252C30.0934 3.12189 29.8684 2.67189 29.3622 2.27814C28.5184 1.60315 27.8997 1.54689 26.9153 1.99689C26.3809 2.22189 26.0434 2.22189 25.4247 1.8844C23.3434 0.815643 18.3934 0.309395 15.4684 0.871895ZM22.0778 2.25002C23.8778 2.72815 25.5934 3.40314 25.5934 3.62815C25.5934 3.76877 25.0028 4.07814 24.2715 4.35939C23.5122 4.64064 22.359 5.14689 21.6559 5.48439C20.6434 5.96252 20.2497 6.04689 19.6028 5.79377C19.0684 5.5969 18.5903 5.5969 17.9997 5.8219C17.3247 6.07502 16.959 6.01877 15.5809 5.31565C14.709 4.86564 13.4997 4.35939 12.8809 4.16252C12.2903 3.99377 11.8122 3.74064 11.8122 3.62815C11.8122 3.43127 14.484 2.47502 15.8903 2.16565C16.9872 1.91252 20.9809 1.96877 22.0778 2.25002ZM10.0965 3.48752C10.7997 4.33127 9.64655 5.37189 8.85905 4.61252C8.3528 4.07814 8.32467 3.88127 8.77467 3.43127C9.22467 2.98127 9.7028 3.0094 10.0965 3.48752ZM28.6872 3.62815C28.884 4.05002 28.8559 4.27502 28.5184 4.61252C28.1809 4.95002 27.9559 4.97815 27.534 4.78127C26.9153 4.44377 26.8309 3.93752 27.3372 3.43127C27.8434 2.92502 28.3497 3.0094 28.6872 3.62815ZM26.4653 5.79377C26.7465 6.13127 27.1684 6.21564 28.1809 6.13127C29.7278 5.96252 29.9528 6.18752 29.8403 7.5094C29.8122 8.01565 29.9809 8.77502 30.234 9.22502C30.684 9.9844 30.684 10.0969 29.8403 12.2344C28.8559 14.7938 27.8434 16.65 27.3934 16.7906C27.2247 16.8469 26.5215 15.975 25.8747 14.8781C25.1997 13.7531 23.8497 11.925 22.8934 10.8C20.6715 8.26877 20.5872 7.59377 22.2747 6.7219C23.5684 6.0469 25.284 5.40002 25.7622 5.37189C25.9309 5.34377 26.2684 5.54065 26.4653 5.79377ZM32.9059 7.70627C32.9059 8.26877 32.1465 8.80315 31.6403 8.60627C31.134 8.43752 31.0778 7.56565 31.5559 7.08752C31.9497 6.69377 32.9059 7.14377 32.9059 7.70627ZM19.5465 7.87502C19.5465 8.38127 19.3778 8.60627 18.8997 8.66252C18.534 8.71877 18.1965 8.57815 18.1122 8.32502C17.8309 7.59377 18.2247 6.97502 18.8997 7.08752C19.3778 7.14377 19.5465 7.36877 19.5465 7.87502ZM21.4872 11.4188C22.6965 12.6281 25.5934 16.7063 25.5934 17.1844C25.5934 17.2688 24.5247 16.9313 23.2309 16.3969C20.6153 15.3563 16.9309 14.3438 15.7497 14.3438C15.3278 14.3438 14.8215 14.1469 14.6247 13.9219C14.2309 13.4438 14.3434 13.275 16.3684 11.1094C17.3247 10.0969 17.5497 9.9844 18.759 10.0125C19.9965 10.0125 20.2215 10.1531 21.4872 11.4188ZM33.5809 11.9531C34.9028 15.2438 35.1278 18.6188 34.2559 22.1344L33.9747 23.2875L31.6965 21.4594C30.459 20.4469 29.3903 19.4063 29.3903 19.1531C29.3622 18.9 29.2497 18.4219 29.1372 18.0844C28.9965 17.6625 29.2215 16.9031 29.8965 15.5531C30.4309 14.5125 31.1622 12.8531 31.4997 11.8688C31.8372 10.9125 32.2872 10.125 32.484 10.125C32.6809 10.125 33.1872 10.9406 33.5809 11.9531ZM13.2184 14.4844C13.6965 15.075 13.359 15.75 12.5434 15.75C11.7559 15.75 11.5028 15.2719 11.8684 14.5406C12.1778 13.95 12.7403 13.9219 13.2184 14.4844ZM2.78405 15.3C3.48717 16.1438 2.33405 17.1844 1.54655 16.425C1.0403 15.8906 1.01217 15.6938 1.46217 15.2438C1.91217 14.7938 2.3903 14.8219 2.78405 15.3ZM10.5184 15.9188C10.659 16.3969 10.4622 17.2406 10.0122 18.3656C8.99967 20.8969 8.43717 24.075 8.43717 27.1406C8.43717 28.6031 8.32467 29.8125 8.21217 29.8125C7.84655 29.8125 6.58092 28.3781 5.5403 26.7188C4.35905 24.8063 3.20592 21.7406 2.9528 19.6594C2.78405 18.1969 2.81217 18.0844 3.48717 17.6344C3.88092 17.3531 4.21842 16.9594 4.21842 16.7625C4.21842 16.0594 4.89342 15.8063 7.31217 15.525C8.63405 15.3844 9.84342 15.2438 10.0122 15.2156C10.209 15.2156 10.434 15.525 10.5184 15.9188ZM18.2809 16.2281C19.2934 16.4813 21.1778 17.1 22.4997 17.6063C24.8622 18.5625 24.8903 18.5906 24.9747 19.6031C25.0309 20.5594 24.8622 20.8125 23.1465 22.5844C20.5309 25.2563 17.4653 27.5063 14.2872 29.0813L11.6153 30.4031L10.7434 29.8969C10.1247 29.5313 9.84342 29.1375 9.73092 28.4063C9.50592 26.9719 10.0122 22.8938 10.7153 20.6438C11.559 17.8875 11.9809 17.1563 12.7403 17.1563C13.5278 17.1563 14.6247 16.425 14.6247 15.8906C14.6247 15.4406 15.1028 15.4969 18.2809 16.2281ZM27.9559 18.7313C28.1528 19.2656 27.6747 19.9688 27.1403 19.9688C26.6059 19.9688 26.1278 19.2656 26.3247 18.7313C26.409 18.4781 26.7747 18.2813 27.1403 18.2813C27.5059 18.2813 27.8715 18.4781 27.9559 18.7313ZM31.3028 22.9219C32.3434 23.7938 33.1872 24.6656 33.1872 24.8625C33.1872 25.5375 30.009 29.8125 29.5028 29.8125C29.3622 29.8125 29.2497 29.025 29.1934 28.0688C29.109 26.5219 29.0528 26.2969 28.5465 26.2969C28.0684 26.2969 27.984 26.5219 27.8997 27.8438C27.8153 29.1656 27.6747 29.475 26.9434 30.0938C26.4372 30.5156 26.0997 31.1063 26.0715 31.5563C26.0153 32.2031 25.7903 32.4281 24.7497 32.8781C21.0372 34.4531 16.4528 34.3969 12.5997 32.7938C11.9809 32.5125 11.6153 32.2031 11.6715 31.9781C11.7559 31.7813 12.5715 31.3313 13.4715 30.9938C17.1278 29.5875 22.3028 25.875 24.9747 22.7813C26.5778 20.8969 27.1684 20.925 27.4778 22.8375C27.6747 24.0469 27.8153 24.3281 28.2653 24.3281C28.884 24.3281 28.9965 23.4844 28.6028 21.7125C28.434 20.8969 28.4622 20.8406 28.9122 21.0656C29.1653 21.2063 30.234 22.05 31.3028 22.9219ZM10.2372 31.3875C10.434 31.9219 9.95592 32.625 9.42155 32.625C8.88717 32.625 8.40905 31.9219 8.60592 31.3875C8.83092 30.7969 10.0122 30.7969 10.2372 31.3875ZM28.9403 31.3313C29.6434 32.175 28.4903 33.2156 27.7028 32.4563C27.1965 31.9219 27.1684 31.725 27.6184 31.275C28.0684 30.825 28.5465 30.8531 28.9403 31.3313Z" fill="#00B5D8"/>
</svg>
