<svg width="36" height="36" viewBox="0 0 36 36" fill="none" xmlns="http://www.w3.org/2000/svg">
<path d="M7.0596 4.05C6.86272 4.275 6.75022 4.80938 6.80647 5.25938L6.89085 6.04688L19.0408 6.1875L31.1908 6.32812L31.8377 6.975C32.4565 7.59375 32.4846 7.81875 32.6252 14.1469L32.7658 20.6719H33.7502H34.7346L34.819 13.6688C34.8752 6.83438 34.8752 6.6375 34.2565 5.7375C32.9065 3.74063 33.3002 3.79688 19.6596 3.7125C9.11272 3.65625 7.34085 3.68438 7.0596 4.05Z" fill="#00B5D8"/>
<path d="M4.07812 8.46563C3.06562 8.775 2.5875 9.14062 1.74375 10.2375C1.125 11.025 1.125 11.1375 1.125 21.1219V31.1906L1.85625 31.7531C2.27812 32.0906 2.89687 32.3438 3.23438 32.3438C3.6 32.3438 5.00625 31.5281 6.35625 30.5156L8.83125 28.6875H18.1406C26.9156 28.6875 27.4781 28.6594 28.35 28.125C28.8562 27.8156 29.5031 27.1688 29.8125 26.6625C30.3469 25.7906 30.375 25.2281 30.375 18.45C30.375 11.3906 30.3469 11.1094 29.7562 10.2375C28.4062 8.26875 28.6594 8.29688 16.1719 8.24063C9.75937 8.2125 4.55625 8.29688 4.07812 8.46563ZM27.1969 11.3625L27.9844 12.0375L28.0687 17.6063C28.1812 23.4563 28.0687 24.6094 27.45 25.4813C27.0562 25.9875 26.4937 26.0156 17.3813 26.1562L7.67812 26.2969L5.5125 27.9281L3.34687 29.5594L3.43125 20.8125L3.51562 12.0375L4.30312 11.3625L5.09062 10.6875H15.75H26.4094L27.1969 11.3625Z" fill="#00B5D8"/>
<path d="M10.3219 17.6343C10.2094 17.7187 10.125 18.1687 10.125 18.6187C10.125 19.7437 11.2781 20.2781 12.0938 19.5468C13.1063 18.6187 12.6281 17.4374 11.25 17.4374C10.8281 17.4374 10.4062 17.5218 10.3219 17.6343Z" fill="#00B5D8"/>
<path d="M14.8219 17.6343C14.7094 17.7187 14.625 18.1687 14.625 18.6187C14.625 19.7437 15.7781 20.2781 16.5938 19.5468C17.6063 18.6187 17.1281 17.4374 15.75 17.4374C15.3281 17.4374 14.9062 17.5218 14.8219 17.6343Z" fill="#00B5D8"/>
<path d="M19.1812 17.775C18.675 18.2812 18.7593 18.9562 19.4062 19.5469C19.8843 19.9687 20.0812 19.9969 20.7 19.7437C21.2906 19.4625 21.4031 19.2375 21.3187 18.4781C21.2343 17.7187 21.1218 17.5781 20.3906 17.4937C19.9125 17.4375 19.3781 17.5781 19.1812 17.775Z" fill="#00B5D8"/>
</svg>
