<svg width="31" height="31" viewBox="0 0 31 31" fill="none" xmlns="http://www.w3.org/2000/svg">
<g clipPath="url(#clip0_103_45)">
<path d="M0 23.25C0 24.1635 0.362896 25.0396 1.00885 25.6856C1.65481 26.3315 2.53092 26.6944 3.44444 26.6944H27.5556C28.4691 26.6944 29.3452 26.3315 29.9911 25.6856C30.6371 25.0396 31 24.1635 31 23.25V18.9444H0V23.25Z" fill="#138808"/>
<path d="M31 12.0556V7.75003C31 6.83651 30.6371 5.9604 29.9911 5.31444C29.3452 4.66848 28.4691 4.30559 27.5556 4.30559H3.44444C2.53092 4.30559 1.65481 4.66848 1.00885 5.31444C0.362896 5.9604 0 6.83651 0 7.75003L0 12.0556H31Z" fill="#FF9933"/>
<path d="M0 11.7688H31V19.232H0V11.7688Z" fill="#F7F7F7"/>
<path d="M15.5001 18.9445C17.4024 18.9445 18.9446 17.4023 18.9446 15.5C18.9446 13.5977 17.4024 12.0556 15.5001 12.0556C13.5978 12.0556 12.0557 13.5977 12.0557 15.5C12.0557 17.4023 13.5978 18.9445 15.5001 18.9445Z" fill="#000080"/>
<path d="M15.5 18.4062C17.1051 18.4062 18.4062 17.1051 18.4062 15.5C18.4062 13.8949 17.1051 12.5938 15.5 12.5938C13.8949 12.5938 12.5938 13.8949 12.5938 15.5C12.5938 17.1051 13.8949 18.4062 15.5 18.4062Z" fill="#F7F7F7"/>
<path d="M15.5863 14.4236L15.5002 14.9834L15.4141 14.4236L15.5002 12.7445L15.5863 14.4236ZM14.7872 12.8383L15.1385 14.4822L15.3667 15.0006L15.3047 14.4383L14.7872 12.8383ZM14.1224 13.1139L14.8871 14.6105L15.2419 15.0523L15.0369 14.5244L14.1224 13.1139ZM13.5515 13.5513L14.6778 14.7999L15.1351 15.1349L14.8001 14.6777L13.5515 13.5513ZM13.114 14.1223L14.5245 15.0368L15.0524 15.2417L14.6107 14.8869L13.114 14.1223ZM12.8385 14.787L14.4384 15.3046L15.0007 15.3666L14.4824 15.1384L12.8385 14.787ZM12.7446 15.5L14.4238 15.5861L14.9835 15.5L14.4238 15.4139L12.7446 15.5ZM12.8385 16.213L14.4824 15.8617L15.0007 15.6335L14.4384 15.6955L12.8385 16.213ZM13.114 16.8778L14.6107 16.1131L15.0524 15.7584L14.5245 15.9633L13.114 16.8778ZM13.5515 17.4487L14.8001 16.3224L15.1351 15.8651L14.6778 16.2001L13.5515 17.4487ZM14.1224 17.8862L15.0369 16.4757L15.2419 15.9478L14.8871 16.3896L14.1224 17.8862ZM14.7872 18.1617L15.3047 16.5618L15.3667 15.9995L15.1385 16.5179L14.7872 18.1617ZM15.5002 18.2556L15.5863 16.5764L15.5002 16.0167L15.4141 16.5764L15.5002 18.2556ZM16.2132 18.1617L15.8619 16.5179L15.6337 15.9995L15.6957 16.5618L16.2132 18.1617ZM16.878 17.8862L16.1133 16.3896L15.7585 15.9478L15.9635 16.4757L16.878 17.8862ZM17.4489 17.4487L16.3225 16.2001L15.8653 15.8651L16.2003 16.3224L17.4489 17.4487ZM17.8863 16.8778L16.4758 15.9633L15.948 15.7584L16.3897 16.1131L17.8863 16.8778ZM18.1619 16.213L16.5619 15.6955L15.9996 15.6335L16.518 15.8617L18.1619 16.213ZM18.2557 15.5L16.5766 15.4139L16.0169 15.5L16.5766 15.5861L18.2557 15.5ZM18.1619 14.787L16.518 15.1384L15.9996 15.3666L16.5619 15.3046L18.1619 14.787ZM17.8863 14.1223L16.3897 14.8869L15.948 15.2417L16.4758 15.0368L17.8863 14.1223ZM17.4489 13.5513L16.2003 14.6777L15.8653 15.1349L16.3225 14.7999L17.4489 13.5513ZM16.878 13.1139L15.9635 14.5244L15.7585 15.0523L16.1133 14.6105L16.878 13.1139ZM16.2132 12.8383L15.6957 14.4383L15.6337 15.0006L15.8619 14.4822L16.2132 12.8383Z" fill="#6666B3"/>
<path d="M15.121 12.7952C15.2161 12.7952 15.2932 12.7181 15.2932 12.623C15.2932 12.5279 15.2161 12.4508 15.121 12.4508C15.0258 12.4508 14.9487 12.5279 14.9487 12.623C14.9487 12.7181 15.0258 12.7952 15.121 12.7952Z" fill="#000080"/>
<path d="M14.389 12.9916C14.4841 12.9916 14.5612 12.9145 14.5612 12.8194C14.5612 12.7243 14.4841 12.6472 14.389 12.6472C14.2939 12.6472 14.2168 12.7243 14.2168 12.8194C14.2168 12.9145 14.2939 12.9916 14.389 12.9916Z" fill="#000080"/>
<path d="M13.7328 13.3696C13.8279 13.3696 13.905 13.2925 13.905 13.1974C13.905 13.1022 13.8279 13.0251 13.7328 13.0251C13.6377 13.0251 13.5605 13.1022 13.5605 13.1974C13.5605 13.2925 13.6377 13.3696 13.7328 13.3696Z" fill="#000080"/>
<path d="M13.1971 13.9052C13.2922 13.9052 13.3693 13.8281 13.3693 13.733C13.3693 13.6379 13.2922 13.5608 13.1971 13.5608C13.102 13.5608 13.0249 13.6379 13.0249 13.733C13.0249 13.8281 13.102 13.9052 13.1971 13.9052Z" fill="#000080"/>
<path d="M12.8192 14.5614C12.9143 14.5614 12.9914 14.4843 12.9914 14.3892C12.9914 14.2941 12.9143 14.2169 12.8192 14.2169C12.7241 14.2169 12.647 14.2941 12.647 14.3892C12.647 14.4843 12.7241 14.5614 12.8192 14.5614Z" fill="#000080"/>
<path d="M12.6229 15.2933C12.718 15.2933 12.7951 15.2162 12.7951 15.1211C12.7951 15.026 12.718 14.9489 12.6229 14.9489C12.5278 14.9489 12.4507 15.026 12.4507 15.1211C12.4507 15.2162 12.5278 15.2933 12.6229 15.2933Z" fill="#000080"/>
<path d="M12.6229 16.0511C12.718 16.0511 12.7951 15.974 12.7951 15.8789C12.7951 15.7838 12.718 15.7067 12.6229 15.7067C12.5278 15.7067 12.4507 15.7838 12.4507 15.8789C12.4507 15.974 12.5278 16.0511 12.6229 16.0511Z" fill="#000080"/>
<path d="M12.8192 16.783C12.9143 16.783 12.9914 16.7059 12.9914 16.6108C12.9914 16.5157 12.9143 16.4386 12.8192 16.4386C12.7241 16.4386 12.647 16.5157 12.647 16.6108C12.647 16.7059 12.7241 16.783 12.8192 16.783Z" fill="#000080"/>
<path d="M13.1971 17.4393C13.2922 17.4393 13.3693 17.3622 13.3693 17.267C13.3693 17.1719 13.2922 17.0948 13.1971 17.0948C13.102 17.0948 13.0249 17.1719 13.0249 17.267C13.0249 17.3622 13.102 17.4393 13.1971 17.4393Z" fill="#000080"/>
<path d="M13.7328 17.9748C13.8279 17.9748 13.905 17.8977 13.905 17.8026C13.905 17.7075 13.8279 17.6304 13.7328 17.6304C13.6377 17.6304 13.5605 17.7075 13.5605 17.8026C13.5605 17.8977 13.6377 17.9748 13.7328 17.9748Z" fill="#000080"/>
<path d="M14.389 18.3528C14.4841 18.3528 14.5612 18.2757 14.5612 18.1806C14.5612 18.0855 14.4841 18.0084 14.389 18.0084C14.2939 18.0084 14.2168 18.0855 14.2168 18.1806C14.2168 18.2757 14.2939 18.3528 14.389 18.3528Z" fill="#000080"/>
<path d="M15.121 18.5492C15.2161 18.5492 15.2932 18.4721 15.2932 18.3769C15.2932 18.2818 15.2161 18.2047 15.121 18.2047C15.0258 18.2047 14.9487 18.2818 14.9487 18.3769C14.9487 18.4721 15.0258 18.5492 15.121 18.5492Z" fill="#000080"/>
<path d="M15.8788 18.5492C15.9739 18.5492 16.051 18.4721 16.051 18.3769C16.051 18.2818 15.9739 18.2047 15.8788 18.2047C15.7837 18.2047 15.7065 18.2818 15.7065 18.3769C15.7065 18.4721 15.7837 18.5492 15.8788 18.5492Z" fill="#000080"/>
<path d="M16.6107 18.3528C16.7058 18.3528 16.7829 18.2757 16.7829 18.1806C16.7829 18.0855 16.7058 18.0084 16.6107 18.0084C16.5156 18.0084 16.4385 18.0855 16.4385 18.1806C16.4385 18.2757 16.5156 18.3528 16.6107 18.3528Z" fill="#000080"/>
<path d="M17.2669 17.9748C17.3621 17.9748 17.4392 17.8977 17.4392 17.8026C17.4392 17.7075 17.3621 17.6304 17.2669 17.6304C17.1718 17.6304 17.0947 17.7075 17.0947 17.8026C17.0947 17.8977 17.1718 17.9748 17.2669 17.9748Z" fill="#000080"/>
<path d="M17.8026 17.4393C17.8977 17.4393 17.9748 17.3622 17.9748 17.267C17.9748 17.1719 17.8977 17.0948 17.8026 17.0948C17.7075 17.0948 17.6304 17.1719 17.6304 17.267C17.6304 17.3622 17.7075 17.4393 17.8026 17.4393Z" fill="#000080"/>
<path d="M18.1805 16.783C18.2756 16.783 18.3527 16.7059 18.3527 16.6108C18.3527 16.5157 18.2756 16.4386 18.1805 16.4386C18.0854 16.4386 18.0083 16.5157 18.0083 16.6108C18.0083 16.7059 18.0854 16.783 18.1805 16.783Z" fill="#000080"/>
<path d="M18.3768 16.0511C18.4719 16.0511 18.549 15.974 18.549 15.8789C18.549 15.7838 18.4719 15.7067 18.3768 15.7067C18.2817 15.7067 18.2046 15.7838 18.2046 15.8789C18.2046 15.974 18.2817 16.0511 18.3768 16.0511Z" fill="#000080"/>
<path d="M18.3768 15.2933C18.4719 15.2933 18.549 15.2162 18.549 15.1211C18.549 15.026 18.4719 14.9489 18.3768 14.9489C18.2817 14.9489 18.2046 15.026 18.2046 15.1211C18.2046 15.2162 18.2817 15.2933 18.3768 15.2933Z" fill="#000080"/>
<path d="M18.1805 14.5614C18.2756 14.5614 18.3527 14.4843 18.3527 14.3892C18.3527 14.2941 18.2756 14.2169 18.1805 14.2169C18.0854 14.2169 18.0083 14.2941 18.0083 14.3892C18.0083 14.4843 18.0854 14.5614 18.1805 14.5614Z" fill="#000080"/>
<path d="M17.8026 13.9052C17.8977 13.9052 17.9748 13.8281 17.9748 13.733C17.9748 13.6379 17.8977 13.5608 17.8026 13.5608C17.7075 13.5608 17.6304 13.6379 17.6304 13.733C17.6304 13.8281 17.7075 13.9052 17.8026 13.9052Z" fill="#000080"/>
<path d="M17.2669 13.3696C17.3621 13.3696 17.4392 13.2925 17.4392 13.1974C17.4392 13.1022 17.3621 13.0251 17.2669 13.0251C17.1718 13.0251 17.0947 13.1022 17.0947 13.1974C17.0947 13.2925 17.1718 13.3696 17.2669 13.3696Z" fill="#000080"/>
<path d="M16.6107 12.9916C16.7058 12.9916 16.7829 12.9145 16.7829 12.8194C16.7829 12.7243 16.7058 12.6472 16.6107 12.6472C16.5156 12.6472 16.4385 12.7243 16.4385 12.8194C16.4385 12.9145 16.5156 12.9916 16.6107 12.9916Z" fill="#000080"/>
<path d="M15.8788 12.7952C15.9739 12.7952 16.051 12.7181 16.051 12.623C16.051 12.5279 15.9739 12.4508 15.8788 12.4508C15.7837 12.4508 15.7065 12.5279 15.7065 12.623C15.7065 12.7181 15.7837 12.7952 15.8788 12.7952Z" fill="#000080"/>
<path d="M15.4996 16.275C15.9276 16.275 16.2746 15.928 16.2746 15.5C16.2746 15.072 15.9276 14.725 15.4996 14.725C15.0716 14.725 14.7246 15.072 14.7246 15.5C14.7246 15.928 15.0716 16.275 15.4996 16.275Z" fill="#000080"/>
</g>
<defs>
<clipPath id="clip0_103_45">
<rect width="31" height="31" fill="white"/>
</clipPath>
</defs>
</svg>
