<svg width="24" height="24" viewBox="0 0 24 24" fill="none" xmlns="http://www.w3.org/2000/svg">
<path d="M9.65615 0.243752C5.98115 1.4625 3.73115 4.7625 3.9749 8.53125C4.14365 10.875 5.08115 12.75 7.7999 16.1438C8.3624 16.8563 8.8124 17.4563 8.8124 17.5125C8.8124 17.55 8.38115 17.6813 7.85615 17.7938C3.6374 18.6938 2.60615 21.375 5.86865 22.95C7.3499 23.6625 9.28115 24 11.9999 24C14.7187 24 16.6499 23.6625 18.1312 22.95C21.3937 21.375 20.3624 18.6938 16.1437 17.7938C15.6187 17.6813 15.1874 17.55 15.1874 17.5125C15.1874 17.4563 15.6374 16.8563 16.1812 16.1625C17.6999 14.2313 18.4687 13.125 19.0312 12.0563C21.2812 7.6875 19.7062 2.7375 15.3749 0.675001C14.3062 0.168751 13.9312 0.0937519 12.2812 0.0562515C11.0999 0.0187511 10.1249 0.0937519 9.65615 0.243752ZM15.1499 1.875C16.5374 2.60625 17.6812 3.80625 18.3374 5.25C18.7499 6.1125 18.8249 6.5625 18.8249 7.9875C18.8437 9.61875 18.8062 9.75 18.0562 11.2688C17.3437 12.675 12.4687 19.3125 12.0374 19.4625C11.8687 19.5188 7.51865 13.95 6.50615 12.3563C6.13115 11.775 5.64365 10.7625 5.41865 10.1063C4.44365 7.2 5.75615 3.675 8.38115 2.11875C9.84365 1.275 10.4812 1.125 12.2812 1.18125C13.7812 1.2375 14.0999 1.3125 15.1499 1.875ZM10.6499 19.875C11.2874 20.7188 11.7562 21.1875 11.9999 21.1875C12.2437 21.1875 12.7124 20.7188 13.3499 19.875C14.4374 18.4125 14.2124 18.4688 16.5374 19.1438C17.7937 19.5 18.9374 20.25 18.9374 20.7188C18.9374 21.1688 17.8124 21.9188 16.5374 22.3125C14.0437 23.1 9.95615 23.1 7.4624 22.3125C6.20615 21.9375 5.0624 21.1688 5.0624 20.7375C5.0624 20.4563 5.71865 19.8375 6.3374 19.5188C6.6749 19.3313 9.1499 18.6188 9.5624 18.5813C9.61865 18.5625 10.1062 19.1438 10.6499 19.875Z" fill="#03045E"/>
<path d="M11.5124 2.15625C11.3624 2.55 11.5874 2.8125 12.1124 2.8125C12.4687 2.8125 12.5624 2.71875 12.5624 2.34375C12.5624 1.96875 12.4687 1.875 12.0937 1.875C11.8312 1.875 11.5687 2.00625 11.5124 2.15625Z" fill="#00B5D8"/>
<path d="M13.5375 2.28749C13.125 2.69999 13.2937 2.96249 14.325 3.52499C14.8687 3.84374 15.6 4.42499 15.9187 4.81874C16.5187 5.54999 17.0625 6.99374 17.0625 7.89374C17.0625 8.43749 17.4375 8.68124 17.925 8.49374C18.1875 8.39999 18.2062 8.19374 18.1125 7.29374C17.9062 5.30624 16.8 3.58124 15.1125 2.62499C14.0437 2.00624 13.8562 1.96874 13.5375 2.28749Z" fill="#00B5D8"/>
<path d="M10.3311 5.00623C8.83109 5.75623 8.19359 7.96873 9.03734 9.56248C10.2561 11.85 13.7436 11.85 14.9436 9.58123C15.7873 7.96873 15.2623 5.96248 13.7623 5.11873C12.8623 4.59373 11.2686 4.55623 10.3311 5.00623ZM13.1061 6.09373C13.6311 6.35623 14.2498 7.36873 14.2498 7.96873C14.2498 8.56873 13.6311 9.58123 13.1061 9.84373C12.2061 10.3125 11.1748 10.2 10.5373 9.56248C8.68109 7.70623 10.7811 4.87498 13.1061 6.09373Z" fill="#00B5D8"/>
</svg>
