<svg width="54" height="49" viewBox="0 0 54 49" fill="none" xmlns="http://www.w3.org/2000/svg">
<path fill-rule="evenodd" clip-rule="evenodd" d="M0.00970765 21.4317C0.247652 14.428 4.88853 8.40748 10.3866 4.15935C15.2012 0.439303 21.3745 0.437915 27.4254 0.248805C33.7754 0.0503455 40.5577 -0.924985 45.5482 3.06044C50.9855 7.40277 54.4629 14.4341 53.95 21.4317C53.4609 28.1046 47.654 32.4753 43.0412 37.2616C38.3401 42.1396 34.1324 48.4245 27.4254 48.9542C20.4099 49.5081 14.1709 44.9554 9.17113 39.9361C4.14235 34.8877 -0.233893 28.6019 0.00970765 21.4317Z" fill="#DDF9FF"/>
<path d="M24.6562 12.2438C20.9812 13.4625 18.7312 16.7625 18.9749 20.5313C19.1437 22.875 20.0812 24.75 22.7999 28.1438C23.3624 28.8563 23.8124 29.4563 23.8124 29.5125C23.8124 29.55 23.3812 29.6813 22.8562 29.7938C18.6374 30.6938 17.6062 33.375 20.8687 34.95C22.3499 35.6625 24.2812 36 26.9999 36C29.7187 36 31.6499 35.6625 33.1312 34.95C36.3937 33.375 35.3624 30.6938 31.1437 29.7938C30.6187 29.6813 30.1874 29.55 30.1874 29.5125C30.1874 29.4563 30.6374 28.8563 31.1812 28.1625C32.6999 26.2313 33.4687 25.125 34.0312 24.0563C36.2812 19.6875 34.7062 14.7375 30.3749 12.675C29.3062 12.1688 28.9312 12.0938 27.2812 12.0563C26.0999 12.0188 25.1249 12.0938 24.6562 12.2438ZM30.1499 13.875C31.5374 14.6063 32.6812 15.8063 33.3374 17.25C33.7499 18.1125 33.8249 18.5625 33.8249 19.9875C33.8437 21.6188 33.8062 21.75 33.0562 23.2688C32.3437 24.675 27.4687 31.3125 27.0374 31.4625C26.8687 31.5188 22.5187 25.95 21.5062 24.3563C21.1312 23.775 20.6437 22.7625 20.4187 22.1063C19.4437 19.2 20.7562 15.675 23.3812 14.1188C24.8437 13.275 25.4812 13.125 27.2812 13.1813C28.7812 13.2375 29.0999 13.3125 30.1499 13.875ZM25.6499 31.875C26.2874 32.7188 26.7562 33.1875 26.9999 33.1875C27.2437 33.1875 27.7124 32.7188 28.3499 31.875C29.4374 30.4125 29.2124 30.4688 31.5374 31.1438C32.7937 31.5 33.9374 32.25 33.9374 32.7188C33.9374 33.1688 32.8124 33.9188 31.5374 34.3125C29.0437 35.1 24.9562 35.1 22.4624 34.3125C21.2062 33.9375 20.0624 33.1688 20.0624 32.7375C20.0624 32.4563 20.7187 31.8375 21.3374 31.5188C21.6749 31.3313 24.1499 30.6188 24.5624 30.5813C24.6187 30.5625 25.1062 31.1438 25.6499 31.875Z" fill="#03045E"/>
<path d="M26.5124 14.1562C26.3624 14.55 26.5874 14.8125 27.1124 14.8125C27.4687 14.8125 27.5624 14.7188 27.5624 14.3437C27.5624 13.9687 27.4687 13.875 27.0937 13.875C26.8312 13.875 26.5687 14.0062 26.5124 14.1562Z" fill="#00B5D8"/>
<path d="M28.5375 14.2875C28.125 14.7 28.2937 14.9625 29.325 15.525C29.8687 15.8437 30.6 16.425 30.9187 16.8187C31.5187 17.55 32.0625 18.9937 32.0625 19.8937C32.0625 20.4375 32.4375 20.6812 32.925 20.4937C33.1875 20.4 33.2062 20.1937 33.1125 19.2937C32.9062 17.3062 31.8 15.5812 30.1125 14.625C29.0437 14.0062 28.8562 13.9687 28.5375 14.2875Z" fill="#00B5D8"/>
<path d="M25.3311 17.0062C23.8311 17.7562 23.1936 19.9687 24.0373 21.5625C25.2561 23.85 28.7436 23.85 29.9436 21.5812C30.7873 19.9687 30.2623 17.9625 28.7623 17.1187C27.8623 16.5937 26.2686 16.5562 25.3311 17.0062ZM28.1061 18.0937C28.6311 18.3562 29.2498 19.3687 29.2498 19.9687C29.2498 20.5687 28.6311 21.5812 28.1061 21.8437C27.2061 22.3125 26.1748 22.2 25.5373 21.5625C23.6811 19.7062 25.7811 16.875 28.1061 18.0937Z" fill="#00B5D8"/>
</svg>
