<svg width="36" height="36" viewBox="0 0 36 36" fill="none" xmlns="http://www.w3.org/2000/svg">
<path d="M18 24.643L11.4276 18.0724L12.7424 16.7353L17.0714 21.0643V5H18.9286V21.0643L23.2557 16.7371L24.5724 18.0724L18 24.643ZM8.00114 31C7.14562 31 6.43186 30.714 5.85986 30.142C5.28786 29.57 5.00124 28.8556 5 27.9989V23.499H6.85714V27.9989C6.85714 28.2849 6.976 28.5473 7.21371 28.7863C7.45143 29.0252 7.71329 29.1441 7.99929 29.1429H28.0007C28.2855 29.1429 28.5473 29.024 28.7863 28.7863C29.0252 28.5486 29.1441 28.2861 29.1429 27.9989V23.499H31V27.9989C31 28.8544 30.714 29.5681 30.142 30.1401C29.57 30.7121 28.8556 30.9988 27.9989 31H8.00114Z" fill="#00B5D8"/>
</svg>
