<svg width="48" height="44" viewBox="0 0 48 44" fill="none" xmlns="http://www.w3.org/2000/svg">
<path fill-rule="evenodd" clip-rule="evenodd" d="M26.0697 0.0111837C32.1619 0.251958 36.9806 4.61332 41.0273 9.07353C44.7817 13.2114 47.0317 18.1945 47.5644 23.7019C48.1651 29.9107 48.8845 37.2059 44.1535 41.3876C39.4916 45.5081 32.3521 42.5795 26.0697 42.7005C19.5492 42.8261 12.4833 45.9164 7.25914 42.0983C1.66998 38.0134 -0.440091 30.5071 0.0750176 23.7019C0.559454 17.3019 5.0515 12.2166 9.85214 7.84144C14.4372 3.66278 19.8075 -0.236307 26.0697 0.0111837Z" fill="#DDF9FF"/>
<path d="M22.4999 13.5438C22.0312 13.825 21.6374 14.2 21.5999 14.3688C21.4874 14.9313 22.0874 14.9313 23.0437 14.3313L23.9812 13.7688L26.1937 15.0438L28.4062 16.3375L28.4624 17.8375C28.5562 20.4813 27.5062 22.2813 25.0874 23.65L23.9999 24.25L22.9312 23.65C20.5312 22.3 19.4999 20.5563 19.4999 17.875V16.3938L20.2499 15.9625C21.0937 15.475 21.2624 14.875 20.5687 14.875C20.3249 14.875 19.7624 15.1375 19.3124 15.4563L18.5249 16.0375L18.5999 18.0438C18.6562 19.8625 18.7124 20.1625 19.2749 21.2875C19.9874 22.75 20.9624 23.6875 22.7624 24.625L23.9999 25.2812L25.2374 24.625C27.0374 23.6875 28.0124 22.75 28.7249 21.2875C29.2874 20.1625 29.3437 19.8438 29.3999 18.0438L29.4749 16.0563L28.8562 15.5875C28.4999 15.325 27.3937 14.6313 26.3812 14.05C24.2624 12.85 23.7562 12.775 22.4999 13.5438Z" fill="#00B5D8"/>
<path d="M22.1437 15.8125C21.2624 16.3188 20.4749 16.8625 20.3812 17.05C20.1562 17.4438 20.3812 19.4313 20.7374 20.3125C21.1124 21.175 22.3499 22.45 23.2687 22.8438C23.9624 23.1625 24.0374 23.1625 24.7312 22.8438C25.6312 22.45 26.8874 21.175 27.2624 20.3125C27.5812 19.5063 27.8249 17.6688 27.6749 17.1625C27.5437 16.7875 24.4124 14.8563 23.9624 14.8938C23.8312 14.8938 23.0062 15.3063 22.1437 15.8125ZM25.4062 16.6375C26.4937 17.2938 26.7374 17.5188 26.7749 17.9688C26.9249 19.2625 26.0624 20.875 24.7312 21.7563L23.9999 22.2438L23.2687 21.7563C21.9374 20.875 21.0749 19.2625 21.2249 17.9875C21.2624 17.5375 21.5062 17.2938 22.5937 16.6375C23.3249 16.2063 23.9437 15.85 23.9999 15.85C24.0562 15.85 24.6937 16.1875 25.4062 16.6375Z" fill="#03045E"/>
<path d="M24.6188 18.475L23.8313 19.2625L23.3813 18.85C22.9126 18.4 22.4063 18.3063 22.2188 18.625C22.0501 18.9063 23.3813 20.5 23.7751 20.5C24.2063 20.5 25.9126 18.5125 25.8376 18.1188C25.7438 17.575 25.4251 17.6688 24.6188 18.475Z" fill="#00B5D8"/>
<path d="M17.7 23.95C16.8563 24.325 16.0875 25.4125 15.9938 26.3687C15.9 27.0812 16.0688 27.6812 16.65 28.7875C16.6875 28.8812 16.5 28.9375 16.2188 28.9375C15.5813 28.9375 14.6813 29.4062 14.4375 29.8562C14.3438 30.0625 14.25 30.8125 14.25 31.5437C14.25 32.725 14.2875 32.875 14.6063 32.875C14.9062 32.875 14.9625 32.6875 15.0375 31.6375C15.15 29.8937 15.1875 29.875 18.6 29.875H21.375L21.2813 30.5687C21.2063 31.0562 21.2813 31.4875 21.5063 31.9375L21.8438 32.5938L21.1313 32.9125C20.2875 33.2875 19.875 34.1312 19.875 35.4062V36.25H17.4375H15.0188L14.9625 34.9937C14.925 33.9437 14.85 33.7187 14.5688 33.6625C14.2688 33.6062 14.2312 33.7375 14.2875 35.2562L14.3438 36.9062H24H33.6562L33.7125 35.0687C33.7688 33.3437 33.75 33.25 33.375 33.25C33.0375 33.25 33 33.3625 33 34.75V36.25H30.5625H28.125V35.4062C28.125 34.1125 27.7125 33.2875 26.8313 32.9125C26.1562 32.6125 26.1188 32.5562 26.3625 32.2188C26.5125 32.0312 26.625 31.4312 26.625 30.8687V29.875H29.4C30.9188 29.875 32.25 29.95 32.3625 30.025C32.7188 30.2687 33 30.9625 33 31.6375C33 32.1812 33.075 32.3125 33.375 32.3125C33.7125 32.3125 33.75 32.1812 33.75 31.2625C33.75 30.7 33.6562 30.0625 33.5625 29.8562C33.3 29.3875 32.4 28.9375 31.7063 28.9375H31.1438L31.5375 28.2437C32.025 27.4187 32.0813 26.0875 31.6313 25.2437C30.8813 23.8187 28.8563 23.2562 27.4125 24.0625C25.9875 24.8687 25.4625 26.7625 26.25 28.2437C26.7 29.0687 26.4563 29.1625 25.4625 28.5625C25.0875 28.3375 24.5063 28.1875 24 28.1875C23.4938 28.1875 22.9125 28.3375 22.5375 28.5625C21.9375 28.9375 21.2813 29.0687 21.4125 28.7875C22.4813 26.725 22.2938 25.3187 20.7563 24.175C20.1188 23.7062 18.4875 23.575 17.7 23.95ZM20.2125 24.925C21.3375 25.7125 21.4875 27.1187 20.55 28.15C19.9875 28.75 19.8 28.8438 19.05 28.8438C17.0063 28.8438 16.1438 26.275 17.775 25C18.3375 24.55 19.6125 24.5125 20.2125 24.925ZM29.9813 24.9062C30.525 25.1687 31.125 26.1812 31.125 26.8187C31.125 27.3812 30.4313 28.3375 29.7938 28.6562C28.4438 29.3687 26.8125 28.3187 26.8125 26.7437C26.8125 26.0312 26.9063 25.8062 27.45 25.2625C28.1625 24.55 29.0625 24.4187 29.9813 24.9062ZM25.0688 29.425C25.6875 29.8187 25.9688 30.85 25.6125 31.525C25.2375 32.2562 24.9 32.5 24.1125 32.6312C23.5312 32.725 23.3625 32.65 22.7625 32.05C22.1625 31.45 22.0875 31.2812 22.1813 30.7C22.3125 29.8937 22.5938 29.5187 23.3438 29.2C23.9438 28.9375 24.3938 28.9937 25.0688 29.425ZM26.8125 34C27.0938 34.2812 27.1875 34.6187 27.1875 35.3125V36.25H24H20.8125V35.3125C20.8125 33.7562 21.075 33.625 24 33.625C26.1938 33.625 26.475 33.6625 26.8125 34Z" fill="#03045E"/>
</svg>
