<svg width="24" height="24" viewBox="0 0 24 24" fill="none" xmlns="http://www.w3.org/2000/svg">
<path d="M10.4999 0.543751C10.0312 0.825001 9.6374 1.2 9.5999 1.36875C9.4874 1.93125 10.0874 1.93125 11.0437 1.33125L11.9812 0.768751L14.1937 2.04375L16.4062 3.3375L16.4624 4.8375C16.5562 7.48125 15.5062 9.28125 13.0874 10.65L11.9999 11.25L10.9312 10.65C8.53115 9.3 7.4999 7.55625 7.4999 4.875V3.39375L8.2499 2.9625C9.09365 2.475 9.2624 1.875 8.56865 1.875C8.3249 1.875 7.7624 2.1375 7.3124 2.45625L6.5249 3.0375L6.5999 5.04375C6.65615 6.8625 6.7124 7.1625 7.2749 8.2875C7.9874 9.75 8.9624 10.6875 10.7624 11.625L11.9999 12.2812L13.2374 11.625C15.0374 10.6875 16.0124 9.75 16.7249 8.2875C17.2874 7.1625 17.3437 6.84375 17.3999 5.04375L17.4749 3.05625L16.8562 2.5875C16.4999 2.325 15.3937 1.63125 14.3812 1.05C12.2624 -0.15 11.7562 -0.224999 10.4999 0.543751Z" fill="#00B5D8"/>
<path d="M10.1437 2.81251C9.26243 3.31876 8.47493 3.86251 8.38118 4.05001C8.15618 4.44376 8.38118 6.43126 8.73743 7.31251C9.11243 8.17501 10.3499 9.45001 11.2687 9.84376C11.9624 10.1625 12.0374 10.1625 12.7312 9.84376C13.6312 9.45001 14.8874 8.17501 15.2624 7.31251C15.5812 6.50626 15.8249 4.66876 15.6749 4.16251C15.5437 3.78751 12.4124 1.85626 11.9624 1.89376C11.8312 1.89376 11.0062 2.30626 10.1437 2.81251ZM13.4062 3.63751C14.4937 4.29376 14.7374 4.51876 14.7749 4.96876C14.9249 6.26251 14.0624 7.87501 12.7312 8.75626L11.9999 9.24376L11.2687 8.75626C9.93743 7.87501 9.07493 6.26251 9.22493 4.98751C9.26243 4.53751 9.50618 4.29376 10.5937 3.63751C11.3249 3.20626 11.9437 2.85001 11.9999 2.85001C12.0562 2.85001 12.6937 3.18751 13.4062 3.63751Z" fill="#03045E"/>
<path d="M12.6188 5.475L11.8313 6.2625L11.3813 5.85C10.9126 5.4 10.4063 5.30625 10.2188 5.625C10.0501 5.90625 11.3813 7.5 11.7751 7.5C12.2063 7.5 13.9126 5.5125 13.8376 5.11875C13.7438 4.575 13.4251 4.66875 12.6188 5.475Z" fill="#00B5D8"/>
<path d="M5.7 10.95C4.85625 11.325 4.0875 12.4125 3.99375 13.3687C3.9 14.0812 4.06875 14.6812 4.65 15.7875C4.6875 15.8812 4.5 15.9375 4.21875 15.9375C3.58125 15.9375 2.68125 16.4062 2.4375 16.8562C2.34375 17.0625 2.25 17.8125 2.25 18.5437C2.25 19.725 2.2875 19.875 2.60625 19.875C2.90625 19.875 2.9625 19.6875 3.0375 18.6375C3.15 16.8937 3.1875 16.875 6.6 16.875H9.375L9.28125 17.5687C9.20625 18.0562 9.28125 18.4875 9.50625 18.9375L9.84375 19.5938L9.13125 19.9125C8.2875 20.2875 7.875 21.1312 7.875 22.4062V23.25H5.4375H3.01875L2.9625 21.9937C2.925 20.9437 2.85 20.7187 2.56875 20.6625C2.26875 20.6062 2.23125 20.7375 2.2875 22.2562L2.34375 23.9062H12H21.6562L21.7125 22.0687C21.7688 20.3437 21.75 20.25 21.375 20.25C21.0375 20.25 21 20.3625 21 21.75V23.25H18.5625H16.125V22.4062C16.125 21.1125 15.7125 20.2875 14.8313 19.9125C14.1562 19.6125 14.1188 19.5562 14.3625 19.2188C14.5125 19.0312 14.625 18.4312 14.625 17.8687V16.875H17.4C18.9188 16.875 20.25 16.95 20.3625 17.025C20.7188 17.2687 21 17.9625 21 18.6375C21 19.1812 21.075 19.3125 21.375 19.3125C21.7125 19.3125 21.75 19.1812 21.75 18.2625C21.75 17.7 21.6562 17.0625 21.5625 16.8562C21.3 16.3875 20.4 15.9375 19.7063 15.9375H19.1438L19.5375 15.2437C20.025 14.4187 20.0813 13.0875 19.6313 12.2437C18.8813 10.8187 16.8563 10.2562 15.4125 11.0625C13.9875 11.8687 13.4625 13.7625 14.25 15.2437C14.7 16.0687 14.4563 16.1625 13.4625 15.5625C13.0875 15.3375 12.5063 15.1875 12 15.1875C11.4938 15.1875 10.9125 15.3375 10.5375 15.5625C9.9375 15.9375 9.28125 16.0687 9.4125 15.7875C10.4813 13.725 10.2938 12.3187 8.75625 11.175C8.11875 10.7062 6.4875 10.575 5.7 10.95ZM8.2125 11.925C9.3375 12.7125 9.4875 14.1187 8.55 15.15C7.9875 15.75 7.8 15.8438 7.05 15.8438C5.00625 15.8438 4.14375 13.275 5.775 12C6.3375 11.55 7.6125 11.5125 8.2125 11.925ZM17.9813 11.9062C18.525 12.1687 19.125 13.1812 19.125 13.8187C19.125 14.3812 18.4313 15.3375 17.7938 15.6562C16.4438 16.3687 14.8125 15.3187 14.8125 13.7437C14.8125 13.0312 14.9063 12.8062 15.45 12.2625C16.1625 11.55 17.0625 11.4187 17.9813 11.9062ZM13.0688 16.425C13.6875 16.8187 13.9688 17.85 13.6125 18.525C13.2375 19.2562 12.9 19.5 12.1125 19.6312C11.5312 19.725 11.3625 19.65 10.7625 19.05C10.1625 18.45 10.0875 18.2812 10.1813 17.7C10.3125 16.8937 10.5938 16.5187 11.3438 16.2C11.9438 15.9375 12.3938 15.9937 13.0688 16.425ZM14.8125 21C15.0938 21.2812 15.1875 21.6187 15.1875 22.3125V23.25H12H8.8125V22.3125C8.8125 20.7562 9.075 20.625 12 20.625C14.1938 20.625 14.475 20.6625 14.8125 21Z" fill="#03045E"/>
</svg>
