<svg width="106" height="113" viewBox="0 0 106 113" fill="none" xmlns="http://www.w3.org/2000/svg">
<path opacity="0.1" d="M50.0837 0C80.9653 0 106 25.2961 106 56.5C106 87.7039 80.9653 113 50.0837 113H0V0H50.0837ZM24.6312 80.532C37.7658 93.8037 59.0617 93.8037 72.1962 80.532C85.3308 67.2603 85.3308 45.7421 72.1962 32.468C59.0617 19.1963 37.7658 19.1963 24.6312 32.468L0.847473 56.5L24.6312 80.532ZM33.4168 56.5C33.4168 64.8689 40.1325 71.6546 48.4149 71.6546C56.6973 71.6546 63.4129 64.8689 63.4129 56.5C63.4129 48.1311 56.6973 41.3454 48.4149 41.3454C40.1325 41.3454 33.4168 48.1311 33.4168 56.5Z" fill="#00B5D8"/>
</svg>
