<svg width="48" height="41" viewBox="0 0 48 41" fill="none" xmlns="http://www.w3.org/2000/svg">
<path fill-rule="evenodd" clip-rule="evenodd" d="M20.518 0.294885C26.6801 0.40879 33.0089 0.163812 37.6481 4.1811C43.5298 9.27429 49.3406 16.286 47.7265 23.8557C46.0977 31.4946 37.7205 35.1144 30.4222 38.0699C23.8237 40.7421 16.3241 42.5622 10.12 39.0853C4.24754 35.7942 3.07144 28.5017 1.68238 21.9636C0.33702 15.6312 -1.69674 8.43721 2.5666 3.53262C6.74094 -1.26957 14.12 0.17662 20.518 0.294885Z" fill="#DDF9FF"/>
<g clip-path="url(#clip0_103_181)">
<path d="M20.4313 8.39375C18.1438 9.275 16.4563 11.675 16.2875 14.2812C16.175 15.95 16.5125 17.1312 17.5625 18.8L18.275 19.925L16.3813 20.9937L14.5063 22.0437L12.7438 26.6562C11.7875 29.2062 11 31.4562 11 31.6437C11 32.2625 11.6 32.0563 14.3563 30.5C15.8 29.675 17.075 29 17.1875 29C17.2813 29 18.5563 29.675 20.0188 30.5C21.4625 31.325 22.7938 32 23 32C23.1875 32 24.5375 31.325 26 30.5C27.4625 29.675 28.7375 29 28.85 29C28.9438 29 30.2 29.675 31.6625 30.5C34.4188 32.075 35 32.2625 35 31.625C35 31.4187 34.2125 29.1875 33.2375 26.6375L31.4938 22.0437L29.6 20.975L27.725 19.925L28.3625 18.9125C29.4313 17.2437 29.6562 16.5312 29.6562 14.6562C29.6562 13.1187 29.6 12.8375 29.0375 11.7125C28.2875 10.1937 26.9563 8.91875 25.5125 8.39375C24.125 7.86875 21.8 7.86875 20.4313 8.39375ZM24.4813 9.05C26.3938 9.575 28.1188 11.2437 28.625 13.0625C28.9625 14.2437 28.85 15.875 28.3813 16.9062C27.8188 18.0875 23.1875 25.4375 23 25.4375C22.8125 25.4375 18.0688 17.8812 17.5813 16.8125C17.15 15.875 17.0563 14.1687 17.375 13.0625C17.8625 11.3 19.4563 9.70625 21.3688 9.0875C22.6063 8.69375 23.1875 8.675 24.4813 9.05ZM18.0125 22.1937C17.6375 23.75 17.675 23.975 18.1625 23.9C18.5188 23.8625 18.6313 23.6375 18.875 22.5687L19.1562 21.2937L20.2812 23.1312C20.9 24.125 21.6875 25.325 22.025 25.775L22.6438 26.5812L22.5875 28.7187L22.5312 30.8375L20.1875 29.525C18.8938 28.7937 17.8063 28.175 17.7875 28.1375C17.75 28.1187 17.8438 27.4437 18.0125 26.6562C18.4063 24.7625 18.4063 24.5 17.9375 24.5C17.5625 24.5 17.4313 24.8375 17 26.975L16.7938 28.025L14.6188 29.2625C13.4188 29.9562 12.425 30.4812 12.3875 30.4437C12.35 30.4062 12.9875 28.6625 13.775 26.5625L15.2375 22.7188L16.6438 21.9312C17.3938 21.5 18.0875 21.1437 18.1438 21.125C18.2188 21.125 18.1438 21.6125 18.0125 22.1937ZM29.3563 21.9312L30.7625 22.7188L32.225 26.5437C33.0125 28.6625 33.65 30.4062 33.6313 30.4437C33.5938 30.4625 32.6 29.9375 31.4 29.2625L29.2063 28.0437L28.9813 26.975C28.8688 26.3937 28.5312 24.8375 28.25 23.5062C27.9875 22.1937 27.8 21.125 27.8563 21.125C27.9125 21.125 28.6063 21.4812 29.3563 21.9312ZM27.5938 24.7437C27.9688 26.5812 28.25 28.1187 28.2313 28.1375C28.1938 28.175 27.1063 28.7937 25.8125 29.525L23.4688 30.8562L23.4125 28.7187L23.3563 26.5812L23.975 25.775C24.3125 25.325 25.1 24.1437 25.7188 23.15C26.3188 22.1375 26.8438 21.35 26.8625 21.3687C26.8813 21.3875 27.2 22.9062 27.5938 24.7437Z" fill="#03045E"/>
<path d="M21.0314 11.2437C18.7252 12.5562 18.3877 15.9125 20.4127 17.6375C23.1502 19.9812 27.2002 17.8812 26.9002 14.2812C26.7877 13.0062 26.0564 11.8625 24.9689 11.2437C23.9189 10.6437 22.0814 10.6437 21.0314 11.2437ZM24.6689 12.1812C25.5127 12.7437 26.0002 13.6812 26.0002 14.75C26.0002 15.7437 25.6064 16.475 24.7439 17.1312C24.1814 17.5625 23.8814 17.6562 23.0002 17.6562C21.1252 17.6562 19.8877 16.325 20.0377 14.4687C20.2439 12.05 22.6627 10.8687 24.6689 12.1812Z" fill="#00B5D8"/>
<path d="M21.7438 12.5C20.9001 13.0062 20.5063 13.7 20.5063 14.6375C20.5063 16.1375 21.5376 17.1875 23.0001 17.1875C24.4626 17.1875 25.4938 16.1375 25.4938 14.6375C25.4938 13.2687 24.3501 12.125 23.0001 12.125C22.6438 12.125 22.0813 12.2937 21.7438 12.5ZM24.0126 13.475C24.7626 14.1312 24.8188 14.9375 24.2188 15.65C23.8251 16.1375 23.5813 16.25 23.0001 16.25C22.0438 16.25 21.2188 15.35 21.3876 14.4875C21.5376 13.7375 22.3063 13.0625 23.0001 13.0625C23.3001 13.0625 23.7501 13.25 24.0126 13.475Z" fill="#00B5D8"/>
</g>
<defs>
<clipPath id="clip0_103_181">
<rect width="24" height="24" fill="white" transform="translate(11 8)"/>
</clipPath>
</defs>
</svg>
