<svg width="24" height="24" viewBox="0 0 24 24" fill="none" xmlns="http://www.w3.org/2000/svg">
<g clipPath="url(#clip0_103_183)">
<path d="M9.43125 0.393749C7.14375 1.275 5.45625 3.675 5.2875 6.28125C5.175 7.95 5.5125 9.13125 6.5625 10.8L7.275 11.925L5.38125 12.9937L3.50625 14.0437L1.74375 18.6562C0.7875 21.2062 0 23.4562 0 23.6437C0 24.2625 0.6 24.0563 3.35625 22.5C4.8 21.675 6.075 21 6.1875 21C6.28125 21 7.55625 21.675 9.01875 22.5C10.4625 23.325 11.7938 24 12 24C12.1875 24 13.5375 23.325 15 22.5C16.4625 21.675 17.7375 21 17.85 21C17.9438 21 19.2 21.675 20.6625 22.5C23.4188 24.075 24 24.2625 24 23.625C24 23.4187 23.2125 21.1875 22.2375 18.6375L20.4938 14.0437L18.6 12.975L16.725 11.925L17.3625 10.9125C18.4313 9.24375 18.6562 8.53125 18.6562 6.65625C18.6562 5.11875 18.6 4.8375 18.0375 3.7125C17.2875 2.19375 15.9563 0.918749 14.5125 0.393749C13.125 -0.13125 10.8 -0.13125 9.43125 0.393749ZM13.4813 1.05C15.3938 1.575 17.1188 3.24375 17.625 5.0625C17.9625 6.24375 17.85 7.875 17.3813 8.90625C16.8188 10.0875 12.1875 17.4375 12 17.4375C11.8125 17.4375 7.06875 9.88125 6.58125 8.8125C6.15 7.875 6.05625 6.16875 6.375 5.0625C6.8625 3.3 8.45625 1.70625 10.3688 1.0875C11.6063 0.693748 12.1875 0.674999 13.4813 1.05ZM7.0125 14.1937C6.6375 15.75 6.675 15.975 7.1625 15.9C7.51875 15.8625 7.63125 15.6375 7.875 14.5687L8.15625 13.2937L9.28125 15.1312C9.9 16.125 10.6875 17.325 11.025 17.775L11.6438 18.5812L11.5875 20.7187L11.5312 22.8375L9.1875 21.525C7.89375 20.7937 6.80625 20.175 6.7875 20.1375C6.75 20.1187 6.84375 19.4437 7.0125 18.6562C7.40625 16.7625 7.40625 16.5 6.9375 16.5C6.5625 16.5 6.43125 16.8375 6 18.975L5.79375 20.025L3.61875 21.2625C2.41875 21.9562 1.425 22.4812 1.3875 22.4437C1.35 22.4062 1.9875 20.6625 2.775 18.5625L4.2375 14.7188L5.64375 13.9312C6.39375 13.5 7.0875 13.1437 7.14375 13.125C7.21875 13.125 7.14375 13.6125 7.0125 14.1937ZM18.3563 13.9312L19.7625 14.7188L21.225 18.5437C22.0125 20.6625 22.65 22.4062 22.6313 22.4437C22.5938 22.4625 21.6 21.9375 20.4 21.2625L18.2063 20.0437L17.9813 18.975C17.8688 18.3937 17.5312 16.8375 17.25 15.5062C16.9875 14.1937 16.8 13.125 16.8563 13.125C16.9125 13.125 17.6063 13.4812 18.3563 13.9312ZM16.5938 16.7437C16.9688 18.5812 17.25 20.1187 17.2313 20.1375C17.1938 20.175 16.1063 20.7937 14.8125 21.525L12.4688 22.8562L12.4125 20.7187L12.3563 18.5812L12.975 17.775C13.3125 17.325 14.1 16.1437 14.7188 15.15C15.3188 14.1375 15.8438 13.35 15.8625 13.3687C15.8813 13.3875 16.2 14.9062 16.5938 16.7437Z" fill="#03045E"/>
<path d="M10.0314 3.24371C7.7252 4.55621 7.3877 7.91246 9.4127 9.63746C12.1502 11.9812 16.2002 9.88121 15.9002 6.28121C15.7877 5.00621 15.0564 3.86246 13.9689 3.24371C12.9189 2.64371 11.0814 2.64371 10.0314 3.24371ZM13.6689 4.18121C14.5127 4.74371 15.0002 5.68121 15.0002 6.74996C15.0002 7.74371 14.6064 8.47496 13.7439 9.13121C13.1814 9.56246 12.8814 9.65621 12.0002 9.65621C10.1252 9.65621 8.8877 8.32496 9.0377 6.46871C9.24395 4.04996 11.6627 2.86871 13.6689 4.18121Z" fill="#00B5D8"/>
<path d="M10.7438 4.5C9.9001 5.00625 9.50635 5.7 9.50635 6.6375C9.50635 8.1375 10.5376 9.1875 12.0001 9.1875C13.4626 9.1875 14.4938 8.1375 14.4938 6.6375C14.4938 5.26875 13.3501 4.125 12.0001 4.125C11.6438 4.125 11.0813 4.29375 10.7438 4.5ZM13.0126 5.475C13.7626 6.13125 13.8188 6.9375 13.2188 7.65C12.8251 8.1375 12.5813 8.25 12.0001 8.25C11.0438 8.25 10.2188 7.35 10.3876 6.4875C10.5376 5.7375 11.3063 5.0625 12.0001 5.0625C12.3001 5.0625 12.7501 5.25 13.0126 5.475Z" fill="#00B5D8"/>
</g>
<defs>
<clipPath id="clip0_103_183">
<rect width="24" height="24" fill="white"/>
</clipPath>
</defs>
</svg>
