<svg width="36" height="37" viewBox="0 0 36 37" fill="none" xmlns="http://www.w3.org/2000/svg">
<g clip-path="url(#clip0_108_626)">
<path d="M16.0314 1.03337C10.4345 2.60838 5.96264 7.5865 5.00639 13.2959C4.72514 15.1521 4.52827 15.5459 3.48764 16.699C0.562643 19.9053 -0.393607 24.2928 1.01264 28.2584C1.35014 29.2146 1.29389 29.524 0.675143 31.3521C-0.843607 35.824 0.253268 36.9209 4.72514 35.4021C6.55327 34.7834 6.86264 34.7271 7.81889 35.0646C11.8689 36.499 16.1158 35.5428 19.5189 32.449C20.8408 31.2678 21.2064 31.0709 22.6689 30.9021C23.5689 30.7896 24.8908 30.4521 25.5939 30.1709L26.8595 29.6646L29.9251 30.7615C33.5251 32.0553 34.3689 32.1115 35.297 31.1553C36.2533 30.2271 36.197 29.2146 35.0158 25.6428L34.0033 22.6334L34.622 20.8615C35.4376 18.4146 35.6345 14.8428 35.0439 12.3396C33.7783 6.99588 29.3626 2.43962 24.047 1.03337C22.3033 0.555252 17.7189 0.555252 16.0314 1.03337ZM23.9908 3.62088C25.9876 4.26775 27.5626 5.25213 29.0814 6.71463C32.7095 10.3146 33.8345 15.3209 32.147 20.3834L31.3595 22.6615L32.5408 25.9803C33.1876 27.8365 33.6095 29.3271 33.4689 29.3271C33.3283 29.3271 31.8095 28.8209 30.0658 28.2021L26.8876 27.049L24.9189 27.7803C22.3033 28.7365 20.0814 28.9334 17.4939 28.3709C7.48139 26.2615 3.88139 13.8865 11.1658 6.71463C14.5408 3.36775 19.4908 2.1865 23.9908 3.62088ZM5.34389 19.8209C5.34389 20.1584 5.79389 21.3678 6.35639 22.549C8.18452 26.3459 12.5439 29.9459 16.1158 30.5928C16.7064 30.7053 17.1283 30.9303 17.072 31.1271C17.0158 31.2959 16.3126 31.8021 15.497 32.2521C13.3876 33.3771 11.2783 33.5178 8.71889 32.7021L6.75014 32.0553L4.72514 32.7865C3.60014 33.1803 2.64389 33.4896 2.61577 33.4334C2.55952 33.4053 2.86889 32.449 3.26264 31.3521L4.02202 29.3553L3.37514 27.3584C2.89702 25.8678 2.78452 24.9678 2.89702 23.7303C3.00952 22.2959 3.79702 20.2428 4.55639 19.2865C4.95014 18.8084 5.34389 19.0896 5.34389 19.8209Z" fill="#00B5D8"/>
<path d="M13.1624 10.2302C12.5156 10.5958 12.4874 12.0583 13.1062 12.2833C13.7249 12.5365 26.8031 12.4802 27.1687 12.2271C27.7874 11.8052 27.8437 11.0458 27.2812 10.4833C26.7468 9.94897 26.3249 9.92084 20.1937 9.92084C16.2562 9.92084 13.4437 10.0615 13.1624 10.2302Z" fill="#00B5D8"/>
<path d="M13.022 14.6178C12.4314 14.8428 12.572 16.3334 13.1908 16.6709C13.5283 16.8396 16.2845 16.9521 20.222 16.9521C26.3251 16.9521 26.747 16.924 27.2814 16.3896C27.8439 15.8271 27.7876 15.0678 27.1689 14.6459C26.8314 14.4209 13.5564 14.3928 13.022 14.6178Z" fill="#00B5D8"/>
<path d="M12.7691 19.3146C12.6847 19.5396 12.6566 20.0178 12.7129 20.3834L12.7972 21.0303H17.5504C21.7691 21.0303 22.3316 20.974 22.6129 20.524C22.8379 20.1865 22.8379 19.9053 22.6129 19.5396C22.3316 19.1178 21.7129 19.0615 17.6066 18.9771C13.7254 18.9209 12.9097 18.9771 12.7691 19.3146Z" fill="#00B5D8"/>
</g>
<defs>
<clipPath id="clip0_108_626">
<rect width="36" height="36" fill="white" transform="translate(0 0.358398)"/>
</clipPath>
</defs>
</svg>
