<svg width="36" height="37" viewBox="0 0 36 37" fill="none" xmlns="http://www.w3.org/2000/svg">
<path d="M6.86297 1.65308C6.35672 1.7937 5.56922 2.3562 5.09109 2.89058C4.30359 3.81871 4.21922 4.07183 4.21922 5.84371V7.81246H3.40359C2.39109 7.81246 1.85672 8.43121 2.08172 9.35933C2.22234 9.94996 2.41922 10.0625 3.23484 10.0625H4.21922V11.975V13.8875L3.17859 14.1687C2.36297 14.3656 2.08172 14.5906 2.02547 15.0687C1.88484 15.9687 2.44734 16.5312 3.40359 16.5312H4.21922V18.5V20.4687H3.40359C1.63172 20.4687 1.46297 22.55 3.23484 22.8875L4.21922 23.0562V24.9968V26.9375H3.23484C2.41922 26.9375 2.22234 27.05 2.08172 27.6406C1.85672 28.5687 2.39109 29.1875 3.40359 29.1875H4.21922V31.1562C4.21922 32.9281 4.30359 33.1812 5.09109 34.1093C5.59734 34.7 6.38484 35.2062 7.05984 35.375C7.76297 35.5718 12.2348 35.6562 19.7723 35.6L31.3598 35.5156L32.3161 34.8406C34.0317 33.6031 34.0317 33.7156 34.0317 18.5C34.0317 3.28433 34.0317 3.39683 32.3161 2.15933L31.3598 1.48433L19.5473 1.42808C12.8817 1.39996 7.34109 1.48433 6.86297 1.65308ZM30.9942 4.35308C31.4723 4.77496 31.5005 5.59058 31.5005 18.4437C31.5005 30.7625 31.4442 32.1406 31.0223 32.6187C30.6005 33.0968 29.8411 33.125 19.0692 33.125C7.95985 33.125 7.56609 33.0968 7.03172 32.5625C6.60984 32.1406 6.46922 31.6343 6.46922 30.5937C6.46922 29.2156 6.49734 29.1875 7.31297 29.1875C7.84734 29.1875 8.2411 28.9906 8.43797 28.625C8.88797 27.7812 8.32547 26.9375 7.31297 26.9375H6.46922V24.9968C6.46922 23.0843 6.46922 23.0562 7.28484 22.9156C9.02859 22.55 9.02859 20.4687 7.31297 20.4687H6.46922V18.5V16.5312H7.31297C9.02859 16.5312 9.02859 14.45 7.28484 14.0843C6.46922 13.9437 6.46922 13.9156 6.46922 12.0031V10.0625H7.31297C8.32547 10.0625 8.88797 9.21871 8.43797 8.37496C8.2411 8.00933 7.84734 7.81246 7.31297 7.81246C6.49734 7.81246 6.46922 7.78433 6.46922 6.40621C6.46922 5.36558 6.60984 4.85933 7.03172 4.43746C7.56609 3.90308 7.95985 3.87496 19.0411 3.87496C29.2786 3.87496 30.5161 3.93121 30.9942 4.35308Z" fill="#00B5D8"/>
<path d="M17.8596 8.17812C15.9189 9.07812 14.3721 11.8625 14.7096 13.9156C15.1877 16.7562 17.2127 18.5 20.0814 18.5C23.1189 18.5 25.2002 16.6437 25.4814 13.6625C25.6783 11.8344 24.8627 10.0906 23.2596 8.825C22.3877 8.12187 21.9096 7.95312 20.4471 7.89687C19.3783 7.84062 18.3658 7.95312 17.8596 8.17812ZM21.2064 10.4562C23.2033 11.3 23.7096 13.55 22.2471 15.1812C21.5439 15.9688 21.2346 16.1094 20.1096 16.1094C18.9846 16.1094 18.6752 15.9688 17.9721 15.1812C16.6221 13.6625 17.1002 11.2719 18.9283 10.4844C20.0533 9.97812 20.0814 9.97812 21.2064 10.4562Z" fill="#00B5D8"/>
<path d="M18.1978 19.625C14.6259 20.525 12.0384 23.3937 11.6165 26.9094C11.3353 29.2719 11.0259 29.1875 20.0821 29.1875C25.8759 29.1875 28.0978 29.1031 28.3509 28.85C29.3353 27.8656 28.2103 24.0125 26.4103 22.1562C24.3853 20.075 20.8415 18.9781 18.1978 19.625ZM22.4446 22.325C23.0071 22.55 23.8509 23.0844 24.2728 23.5062C25.0603 24.2656 26.1571 26.0656 26.1571 26.6562C26.1571 26.825 24.104 26.9375 20.1103 26.9375C16.1165 26.9375 14.0634 26.825 14.0634 26.6562C14.0634 25.4187 16.1446 23.0281 17.8603 22.2687C19.0134 21.7625 21.179 21.7906 22.4446 22.325Z" fill="#00B5D8"/>
</svg>
