<svg width="36" height="37" viewBox="0 0 36 37" fill="none" xmlns="http://www.w3.org/2000/svg">
<g clip-path="url(#clip0_108_719)">
<path d="M13.8094 1.03437C10.4344 2.3 7.9875 4.52188 6.38438 7.78438C5.5125 9.58438 5.48438 9.75313 5.48438 13.1562C5.48438 16.4469 5.56875 16.8406 6.44063 19.1469C7.59375 22.1562 9.84375 25.9531 14.0344 31.9437C16.8188 35.9094 17.3531 36.5 18 36.5C18.6469 36.5 19.1531 35.9375 21.8813 32.0563C26.0156 26.1781 27.7313 23.3375 28.9969 20.4688C30.4031 17.2063 30.7406 15.4344 30.6 12.2844C30.4875 10.0063 30.3469 9.35938 29.5313 7.67188C28.2938 5.08438 26.0719 2.8625 23.4844 1.625C21.6562 0.725002 21.2625 0.640625 18.4219 0.584377C15.8906 0.5 15.0469 0.584377 13.8094 1.03437ZM22.2469 3.79063C26.8875 5.95625 29.2781 10.9906 28.0125 15.9688C27.2812 18.8375 25.3969 22.4656 21.9656 27.5C20.25 30.0594 18.6469 32.3938 18.4219 32.675C17.9156 33.35 18.3094 33.8 14.0063 27.5C7.7625 18.3031 6.4125 13.6063 8.63438 8.88125C11.1094 3.62188 17.1 1.37188 22.2469 3.79063Z" fill="#00B5D8"/>
<path d="M15.75 7.0531C14.3719 7.5031 12.2906 9.66873 11.8687 11.075C11.1094 13.6344 11.6437 15.8281 13.5 17.6562C16.1156 20.3 19.8844 20.3 22.5 17.6562C25.1437 15.0406 25.1437 11.2719 22.5 8.65623C20.6719 6.8281 18.2812 6.2656 15.75 7.0531ZM20.0812 9.7531C21.2906 10.5687 21.9375 11.7219 21.9375 13.1562C21.9375 15.4062 20.25 17.0937 18 17.0937C16.5656 17.0937 15.4125 16.4469 14.5969 15.2375C13.4719 13.5219 14.0906 10.9625 15.9187 9.7531C16.425 9.44373 17.2406 9.21873 18 9.21873C18.7594 9.21873 19.575 9.44373 20.0812 9.7531Z" fill="#00B5D8"/>
</g>
<defs>
<clipPath id="clip0_108_719">
<rect width="36" height="36" fill="white" transform="translate(0 0.5)"/>
</clipPath>
</defs>
</svg>
