<svg width="24" height="24" viewBox="0 0 24 24" fill="none" xmlns="http://www.w3.org/2000/svg">
<g clip-path="url(#clip0_103_140)">
<path d="M9.54375 0.637499C7.18125 1.29375 4.7625 3.31875 3.675 5.53125C3.1875 6.54375 3.1125 6.6 2.8875 6.3C2.625 5.925 2.0625 6.01875 2.0625 6.4125C2.0625 6.54375 2.23125 6.9375 2.4375 7.275C2.7375 7.7625 2.8125 8.2125 2.8125 9.54375C2.8125 11.6437 3.28125 13.2562 4.36875 14.85C5.2875 16.1812 7.33125 17.8687 7.93125 17.775C8.625 17.6625 8.475 17.2875 7.40625 16.5937C5.60625 15.3937 4.425 13.7062 3.84375 11.4937C3.5625 10.4062 3.4875 9.20625 3.675 8.53125C3.73125 8.325 4.10625 7.96875 4.51875 7.725C5.23125 7.3125 5.4375 6.9 5.0625 6.65625C4.96875 6.6 4.70625 6.6375 4.5 6.75C3.95625 7.03125 4.0125 6.675 4.6875 5.49375C6.4125 2.49375 10.0125 0.731249 13.275 1.3125C15.825 1.74375 18.1875 3.4125 19.3688 5.5875L19.875 6.54375L19.4625 7.3875C19.125 8.08125 19.0875 8.2875 19.2938 8.49375C19.4813 8.68125 19.5938 8.625 19.875 8.2875L20.2313 7.85625L20.3625 8.71875C20.6063 10.35 20.025 12.675 19.0125 14.175C18.75 14.55 18.5813 14.9812 18.6375 15.1125C18.7125 15.3 18.6375 15.3187 18.2812 15.15C17.925 15 17.6813 15 17.3438 15.15C17.0063 15.3187 16.7625 15.3187 16.425 15.1687C16.1063 15.0187 15.8063 15.0187 15.4313 15.1312C15.1125 15.2625 14.7375 15.2625 14.4375 15.15C14.175 15.0562 13.8188 15.0187 13.65 15.075C13.3313 15.15 13.3125 14.9625 13.3125 12.8625C13.3125 10.2562 13.1625 9.9375 11.9625 9.9375C10.7438 9.9375 10.6875 10.1437 10.6875 14.4C10.6875 18.0937 10.6875 18.1875 10.2938 18.1875C10.0875 18.1875 9.75 18.2625 9.5625 18.375C9.31875 18.5062 9.20625 18.4875 9.1125 18.2812C9.0375 18.0375 8.34375 18 4.6875 18C0.50625 18 0.375 18.0187 0.375 18.375C0.375 18.7312 0.50625 18.75 4.6875 18.75H9L8.8875 19.2187C8.83125 19.4812 8.83125 19.8937 8.8875 20.1375C9 20.625 11.2688 22.5937 12.375 23.1562C13.2188 23.5875 15.4688 23.7562 16.3875 23.4375C17.8875 22.95 18.9938 21.4875 19.2375 19.7062L19.3688 18.75H20.7563H22.1438L21.7313 19.2937C21.3375 19.8187 21.375 20.25 21.8063 20.25C22.125 20.25 23.625 18.7125 23.625 18.375C23.625 17.9812 22.2938 16.6875 21.9 16.6875C21.375 16.6875 21.3188 17.0625 21.75 17.5312L22.1625 17.9625L20.7375 18.0375L19.3125 18.0937V17.3062C19.3125 16.875 19.2375 16.3125 19.125 16.05C18.975 15.6562 19.0312 15.4875 19.3875 15.1125C20.55 13.9687 21.2438 11.7187 21.15 9.375C21.1125 8.4375 21.1313 7.6875 21.1875 7.6875C21.2438 7.6875 21.4125 7.7625 21.5625 7.875C21.8438 8.04375 22.3125 7.8 22.3125 7.48125C22.3125 7.3875 21.975 7.125 21.5438 6.9C20.9813 6.58125 20.6438 6.1875 20.2125 5.3625C19.0875 3.15 16.9313 1.40625 14.4563 0.674999C13.2375 0.318748 10.7812 0.299999 9.54375 0.637499ZM12.3375 10.9125C12.4875 11.0625 12.5625 12.0187 12.5625 14.0062C12.5625 16.6687 12.5813 16.875 12.9 16.875C13.1063 16.875 13.35 16.6687 13.4625 16.4062C13.575 16.1437 13.8188 15.9375 13.9688 15.9375C14.1375 15.9375 14.3438 16.1437 14.4375 16.4062C14.6625 17.0062 15.15 17.0062 15.375 16.3875C15.6 15.8062 16.1438 15.8437 16.4062 16.4625C16.65 17.0062 17.025 16.9875 17.2875 16.4062C17.4375 16.0687 17.625 15.9375 17.8875 15.975C18.2625 16.0312 18.2812 16.1437 18.2812 18.3C18.2812 20.4937 18.2625 20.5875 17.7375 21.2625C16.7063 22.6312 15.525 23.0437 13.7813 22.6875C12.9188 22.5 12.45 22.2375 11.2875 21.3C10.2188 20.4187 9.84375 20.0062 9.84375 19.6687C9.84375 19.275 9.9375 19.2187 10.65 19.1625L11.4375 19.1062V15.1125C11.4375 11.325 11.5125 10.6875 12 10.6875C12.0563 10.6875 12.2063 10.7812 12.3375 10.9125Z" fill="#03045E"/>
<path d="M11.025 3.76875C10.8375 3.8625 10.6875 4.10625 10.6875 4.29375C10.6875 4.48125 10.5188 4.78125 10.3125 4.96875C9.9375 5.30625 9.9 5.30625 9.375 4.9875C8.8875 4.70625 8.7375 4.70625 8.30625 4.9125C8.04375 5.04375 7.65 5.38125 7.44375 5.6625C7.06875 6.16875 7.06875 6.20625 7.3875 6.8625C7.6875 7.5 7.6875 7.575 7.3875 7.89375C7.21875 8.1 6.91875 8.25 6.75 8.25C6.24375 8.25 6 8.6625 6 9.5625C6 10.4813 6.24375 10.875 6.76875 10.875C6.95625 10.875 7.2375 11.0625 7.3875 11.2688C7.63125 11.625 7.63125 11.7375 7.35 12.3C7.06875 12.9 7.06875 12.975 7.44375 13.4625C7.65 13.7438 8.04375 14.1 8.30625 14.25C8.75625 14.4938 8.85 14.4938 9.35625 14.1938C9.65625 14.025 10.05 13.875 10.2188 13.875C10.4062 13.875 10.5 13.7625 10.4625 13.5375C10.3875 13.1625 9.5625 13.0125 9.0375 13.2938C8.56875 13.5375 7.9875 12.9938 8.25 12.5625C8.5875 12.0188 8.45625 11.0625 7.96875 10.5938C7.725 10.3313 7.3875 10.125 7.21875 10.125C7.03125 10.125 6.9375 9.9375 6.9375 9.5625C6.9375 9.13125 7.03125 9 7.29375 9C8.1 9 8.75625 7.35 8.25 6.5625C7.9875 6.15 8.56875 5.5875 9.01875 5.8125C9.6375 6.15 10.5938 6.0375 11.025 5.56875C11.25 5.325 11.4375 4.9875 11.4375 4.81875C11.4375 4.59375 11.6063 4.5 12 4.5C12.4125 4.5 12.5625 4.59375 12.5625 4.8375C12.5625 5.7 14.175 6.3375 15 5.8125C15.4125 5.55 15.975 6.13125 15.75 6.58125C15.2812 7.44375 15.8813 9 16.7063 9C16.9688 9 17.0625 9.13125 17.0625 9.5625C17.0625 9.9375 16.9688 10.125 16.7812 10.125C16.6125 10.125 16.275 10.3313 16.0312 10.5938C15.5438 11.0625 15.4125 12.0188 15.75 12.5625C16.0125 12.9938 15.4313 13.5375 14.9625 13.2938C14.4375 13.0125 13.6125 13.1625 13.5375 13.5375C13.5 13.7625 13.5938 13.875 13.7813 13.875C13.95 13.875 14.3438 14.025 14.6438 14.1938C15.15 14.4938 15.2438 14.4938 15.6938 14.25C15.9563 14.1 16.35 13.7438 16.5563 13.4625C16.9313 12.975 16.9313 12.9 16.65 12.3C16.3688 11.7375 16.3688 11.625 16.6125 11.2688C16.7625 11.0625 17.0438 10.875 17.2313 10.875C17.7563 10.875 18 10.4813 18 9.5625C18 8.6625 17.7563 8.25 17.25 8.25C17.0813 8.25 16.7812 8.1 16.6125 7.89375C16.3125 7.575 16.3125 7.5 16.6125 6.8625C16.9313 6.20625 16.9313 6.16875 16.5563 5.6625C16.35 5.38125 15.9563 5.04375 15.6938 4.9125C15.2625 4.70625 15.1125 4.70625 14.625 4.9875C14.1 5.30625 14.0625 5.30625 13.6875 4.96875C13.4813 4.78125 13.3125 4.48125 13.3125 4.29375C13.3125 3.65625 11.8125 3.3 11.025 3.76875Z" fill="#00B5D8"/>
<path d="M10.5375 6.88125C9.5625 7.36875 9 8.325 9 9.5625C9 10.7625 9.525 11.8125 10.125 11.8125C10.5937 11.8125 10.5937 11.4187 10.125 10.65C9.6375 9.84375 9.65625 9.20625 10.1812 8.41875C10.7812 7.51875 11.85 7.1625 12.7875 7.55625C13.5562 7.875 14.25 8.83125 14.25 9.5625C14.25 9.825 14.0812 10.3125 13.875 10.65C13.4062 11.4187 13.4062 11.8125 13.875 11.8125C14.9437 11.8125 15.4125 9.1125 14.55 7.85625C13.725 6.6375 11.9062 6.20625 10.5375 6.88125Z" fill="#00B5D8"/>
</g>
<defs>
<clipPath id="clip0_103_140">
<rect width="24" height="24" fill="white"/>
</clipPath>
</defs>
</svg>
