<svg width="49" height="44" viewBox="0 0 49 44" fill="none" xmlns="http://www.w3.org/2000/svg">
<path fill-rule="evenodd" clip-rule="evenodd" d="M24.103 0.000871224C29.3571 -0.072098 33.3311 4.45284 37.378 8.20436C42.0837 12.5665 48.6225 16.2366 48.9822 23.0638C49.3482 30.0118 44.0126 35.6044 39.0416 39.7855C34.7744 43.3747 29.4398 44.0988 24.103 43.9898C18.896 43.8835 13.814 42.7602 9.69972 39.1862C4.94812 35.0585 -0.305317 29.7869 0.0138567 23.0638C0.327964 16.4476 6.65508 12.8752 11.1533 8.56856C15.1146 4.77604 18.8908 0.0732577 24.103 0.000871224Z" fill="#DDF9FF"/>
<g clip-path="url(#clip0_103_138)">
<path d="M22.5438 12.6375C20.1813 13.2937 17.7625 15.3187 16.675 17.5312C16.1875 18.5437 16.1125 18.6 15.8875 18.3C15.625 17.925 15.0625 18.0187 15.0625 18.4125C15.0625 18.5437 15.2313 18.9375 15.4375 19.275C15.7375 19.7625 15.8125 20.2125 15.8125 21.5437C15.8125 23.6437 16.2812 25.2562 17.3688 26.85C18.2875 28.1812 20.3313 29.8687 20.9313 29.775C21.625 29.6625 21.475 29.2875 20.4063 28.5937C18.6063 27.3937 17.425 25.7062 16.8438 23.4937C16.5625 22.4062 16.4875 21.2062 16.675 20.5312C16.7313 20.325 17.1063 19.9687 17.5188 19.725C18.2313 19.3125 18.4375 18.9 18.0625 18.6562C17.9688 18.6 17.7063 18.6375 17.5 18.75C16.9563 19.0312 17.0125 18.675 17.6875 17.4937C19.4125 14.4937 23.0125 12.7312 26.275 13.3125C28.825 13.7437 31.1875 15.4125 32.3688 17.5875L32.875 18.5437L32.4625 19.3875C32.125 20.0812 32.0875 20.2875 32.2938 20.4937C32.4813 20.6812 32.5938 20.625 32.875 20.2875L33.2313 19.8562L33.3625 20.7187C33.6063 22.35 33.025 24.675 32.0125 26.175C31.75 26.55 31.5813 26.9812 31.6375 27.1125C31.7125 27.3 31.6375 27.3187 31.2812 27.15C30.925 27 30.6813 27 30.3438 27.15C30.0063 27.3187 29.7625 27.3187 29.425 27.1687C29.1063 27.0187 28.8063 27.0187 28.4313 27.1312C28.1125 27.2625 27.7375 27.2625 27.4375 27.15C27.175 27.0562 26.8188 27.0187 26.65 27.075C26.3313 27.15 26.3125 26.9625 26.3125 24.8625C26.3125 22.2562 26.1625 21.9375 24.9625 21.9375C23.7438 21.9375 23.6875 22.1437 23.6875 26.4C23.6875 30.0937 23.6875 30.1875 23.2938 30.1875C23.0875 30.1875 22.75 30.2625 22.5625 30.375C22.3188 30.5062 22.2063 30.4875 22.1125 30.2812C22.0375 30.0375 21.3438 30 17.6875 30C13.5063 30 13.375 30.0187 13.375 30.375C13.375 30.7312 13.5063 30.75 17.6875 30.75H22L21.8875 31.2187C21.8313 31.4812 21.8313 31.8937 21.8875 32.1375C22 32.625 24.2688 34.5937 25.375 35.1562C26.2188 35.5875 28.4688 35.7562 29.3875 35.4375C30.8875 34.95 31.9938 33.4875 32.2375 31.7062L32.3688 30.75H33.7563H35.1438L34.7313 31.2937C34.3375 31.8187 34.375 32.25 34.8063 32.25C35.125 32.25 36.625 30.7125 36.625 30.375C36.625 29.9812 35.2938 28.6875 34.9 28.6875C34.375 28.6875 34.3188 29.0625 34.75 29.5312L35.1625 29.9625L33.7375 30.0375L32.3125 30.0937V29.3062C32.3125 28.875 32.2375 28.3125 32.125 28.05C31.975 27.6562 32.0312 27.4875 32.3875 27.1125C33.55 25.9687 34.2438 23.7187 34.15 21.375C34.1125 20.4375 34.1313 19.6875 34.1875 19.6875C34.2438 19.6875 34.4125 19.7625 34.5625 19.875C34.8438 20.0437 35.3125 19.8 35.3125 19.4812C35.3125 19.3875 34.975 19.125 34.5438 18.9C33.9813 18.5812 33.6438 18.1875 33.2125 17.3625C32.0875 15.15 29.9313 13.4062 27.4563 12.675C26.2375 12.3187 23.7812 12.3 22.5438 12.6375ZM25.3375 22.9125C25.4875 23.0625 25.5625 24.0187 25.5625 26.0062C25.5625 28.6687 25.5813 28.875 25.9 28.875C26.1063 28.875 26.35 28.6687 26.4625 28.4062C26.575 28.1437 26.8188 27.9375 26.9688 27.9375C27.1375 27.9375 27.3438 28.1437 27.4375 28.4062C27.6625 29.0062 28.15 29.0062 28.375 28.3875C28.6 27.8062 29.1438 27.8437 29.4062 28.4625C29.65 29.0062 30.025 28.9875 30.2875 28.4062C30.4375 28.0687 30.625 27.9375 30.8875 27.975C31.2625 28.0312 31.2812 28.1437 31.2812 30.3C31.2812 32.4937 31.2625 32.5875 30.7375 33.2625C29.7063 34.6312 28.525 35.0437 26.7813 34.6875C25.9188 34.5 25.45 34.2375 24.2875 33.3C23.2188 32.4187 22.8438 32.0062 22.8438 31.6687C22.8438 31.275 22.9375 31.2187 23.65 31.1625L24.4375 31.1062V27.1125C24.4375 23.325 24.5125 22.6875 25 22.6875C25.0563 22.6875 25.2063 22.7812 25.3375 22.9125Z" fill="#03045E"/>
<path d="M24.025 15.7688C23.8375 15.8625 23.6875 16.1063 23.6875 16.2938C23.6875 16.4813 23.5188 16.7813 23.3125 16.9688C22.9375 17.3063 22.9 17.3063 22.375 16.9875C21.8875 16.7063 21.7375 16.7063 21.3063 16.9125C21.0438 17.0438 20.65 17.3813 20.4438 17.6625C20.0688 18.1688 20.0688 18.2063 20.3875 18.8625C20.6875 19.5 20.6875 19.575 20.3875 19.8938C20.2188 20.1 19.9188 20.25 19.75 20.25C19.2438 20.25 19 20.6625 19 21.5625C19 22.4813 19.2438 22.875 19.7688 22.875C19.9563 22.875 20.2375 23.0625 20.3875 23.2688C20.6313 23.625 20.6313 23.7375 20.35 24.3C20.0688 24.9 20.0688 24.975 20.4438 25.4625C20.65 25.7438 21.0438 26.1 21.3063 26.25C21.7563 26.4938 21.85 26.4938 22.3563 26.1938C22.6563 26.025 23.05 25.875 23.2188 25.875C23.4062 25.875 23.5 25.7625 23.4625 25.5375C23.3875 25.1625 22.5625 25.0125 22.0375 25.2938C21.5688 25.5375 20.9875 24.9938 21.25 24.5625C21.5875 24.0188 21.4563 23.0625 20.9688 22.5938C20.725 22.3313 20.3875 22.125 20.2188 22.125C20.0312 22.125 19.9375 21.9375 19.9375 21.5625C19.9375 21.1313 20.0312 21 20.2938 21C21.1 21 21.7563 19.35 21.25 18.5625C20.9875 18.15 21.5688 17.5875 22.0188 17.8125C22.6375 18.15 23.5938 18.0375 24.025 17.5688C24.25 17.325 24.4375 16.9875 24.4375 16.8188C24.4375 16.5938 24.6063 16.5 25 16.5C25.4125 16.5 25.5625 16.5938 25.5625 16.8375C25.5625 17.7 27.175 18.3375 28 17.8125C28.4125 17.55 28.975 18.1313 28.75 18.5813C28.2812 19.4438 28.8813 21 29.7063 21C29.9688 21 30.0625 21.1313 30.0625 21.5625C30.0625 21.9375 29.9688 22.125 29.7812 22.125C29.6125 22.125 29.275 22.3313 29.0312 22.5938C28.5438 23.0625 28.4125 24.0188 28.75 24.5625C29.0125 24.9938 28.4313 25.5375 27.9625 25.2938C27.4375 25.0125 26.6125 25.1625 26.5375 25.5375C26.5 25.7625 26.5938 25.875 26.7813 25.875C26.95 25.875 27.3438 26.025 27.6438 26.1938C28.15 26.4938 28.2438 26.4938 28.6938 26.25C28.9563 26.1 29.35 25.7438 29.5563 25.4625C29.9313 24.975 29.9313 24.9 29.65 24.3C29.3688 23.7375 29.3688 23.625 29.6125 23.2688C29.7625 23.0625 30.0438 22.875 30.2313 22.875C30.7563 22.875 31 22.4813 31 21.5625C31 20.6625 30.7563 20.25 30.25 20.25C30.0813 20.25 29.7812 20.1 29.6125 19.8938C29.3125 19.575 29.3125 19.5 29.6125 18.8625C29.9313 18.2063 29.9313 18.1688 29.5563 17.6625C29.35 17.3813 28.9563 17.0438 28.6938 16.9125C28.2625 16.7063 28.1125 16.7063 27.625 16.9875C27.1 17.3063 27.0625 17.3063 26.6875 16.9688C26.4813 16.7813 26.3125 16.4813 26.3125 16.2938C26.3125 15.6563 24.8125 15.3 24.025 15.7688Z" fill="#00B5D8"/>
<path d="M23.5375 18.8812C22.5625 19.3687 22 20.325 22 21.5625C22 22.7625 22.525 23.8125 23.125 23.8125C23.5937 23.8125 23.5937 23.4187 23.125 22.65C22.6375 21.8437 22.6562 21.2062 23.1812 20.4187C23.7812 19.5187 24.85 19.1625 25.7875 19.5562C26.5562 19.875 27.25 20.8312 27.25 21.5625C27.25 21.825 27.0812 22.3125 26.875 22.65C26.4062 23.4187 26.4062 23.8125 26.875 23.8125C27.9437 23.8125 28.4125 21.1125 27.55 19.8562C26.725 18.6375 24.9062 18.2062 23.5375 18.8812Z" fill="#00B5D8"/>
</g>
<defs>
<clipPath id="clip0_103_138">
<rect width="24" height="24" fill="white" transform="translate(13 12)"/>
</clipPath>
</defs>
</svg>
