<svg width="36" height="36" viewBox="0 0 36 36" fill="none" xmlns="http://www.w3.org/2000/svg">
<path d="M16.4251 0.871876C14.2313 3.17813 10.7719 4.35938 3.51569 5.2875L1.82819 5.48438L1.74381 12.8813C1.65944 21.1781 1.82819 22.3594 3.54381 25.5938C5.56881 29.4469 9.87194 33.1031 14.7376 35.0719C17.4938 36.1969 18.3657 36.225 20.7282 35.2688C24.8907 33.6094 28.6594 30.8813 30.7969 28.0406C33.8907 23.9344 34.3126 22.1344 34.3126 12.7688C34.3126 8.85938 34.2001 5.59688 34.0876 5.5125C33.9469 5.42813 32.5969 5.23125 31.0501 5.09063C25.9313 4.55625 21.7407 3.0375 19.6313 1.0125C18.3376 -0.224998 17.5219 -0.28125 16.4251 0.871876ZM18.9001 3.2625C20.7563 4.80938 24.3563 6.15938 28.5188 6.89062C29.8969 7.11563 31.3313 7.3125 31.6969 7.3125H32.4001L32.2876 13.8375C32.1751 19.7437 32.0907 20.5594 31.5282 22.2188C30.0938 26.2969 26.9157 29.7563 22.4719 32.0625C18.5063 34.1156 18.3094 34.1438 15.8063 33.1875C9.73131 30.825 5.06256 25.875 3.96569 20.5875C3.79694 19.7719 3.65631 16.4531 3.65631 13.2469V7.36875L5.54069 7.2C9.75944 6.77813 15.9469 4.6125 17.3251 3.06562C17.9157 2.39062 17.8876 2.39062 18.9001 3.2625Z" fill="#00B5D8"/>
<path d="M16.4246 10.9687C16.1152 11.0812 15.4965 11.5875 15.1027 12.0937C14.484 12.825 14.3434 13.275 14.3434 14.5125C14.3434 15.9187 14.2871 16.0312 13.6965 16.0312C13.3309 16.0312 12.909 16.1719 12.7121 16.3687C12.234 16.8469 12.234 24.4969 12.7121 24.975C12.9371 25.2 14.5402 25.3125 18.0559 25.3125C22.6965 25.3125 23.0621 25.2844 23.3434 24.7781C23.709 24.0469 23.709 17.2969 23.3434 16.5656C23.1746 16.2562 22.7527 16.0312 22.359 16.0312C21.7121 16.0312 21.6559 15.9187 21.6559 14.6812C21.6559 11.7844 19.0402 9.9 16.4246 10.9687ZM18.984 13.3594C19.4621 13.8094 19.6871 14.3438 19.6871 15.0469V16.0312H17.9996H16.3121V14.9625C16.3121 13.7812 16.4809 13.4437 17.2965 12.9937C18.084 12.5437 18.2246 12.5719 18.984 13.3594ZM21.3746 20.6719V23.3437H17.9996H14.6246V20.6719V18H17.9996H21.3746V20.6719Z" fill="#00B5D8"/>
</svg>
